<?xml version='1.0' encoding='UTF-8'?>
<!DOCTYPE svg PUBLIC "-//W3C//DTD SVG 1.0//EN" "http://www.w3.org/TR/2001/REC-SVG-20010904/DTD/svg10.dtd">
<svg viewBox="0 0 1080 500" xmlns="http://www.w3.org/2000/svg" xmlns:inkspace="http://www.inkscape.org/namespaces/inkscape" xmlns:xlink="http://www.w3.org/1999/xlink">
  <defs id="defs_block">
    <filter height="1.504" id="filter_blur" inkspace:collect="always" width="1.1575" x="-0.07875" y="-0.252">
      <feGaussianBlur id="feGaussianBlur3780" inkspace:collect="always" stdDeviation="4.2" />
    </filter>
  </defs>
  <title>blockdiag</title>
  <desc />
  <rect fill="rgb(0,0,0)" height="40" stroke="rgb(0,0,0)" style="filter:url(#filter_blur);opacity:0.7;fill-opacity:1" width="120" x="33" y="56" />
  <rect fill="rgb(0,0,0)" height="40" stroke="rgb(0,0,0)" style="filter:url(#filter_blur);opacity:0.7;fill-opacity:1" width="120" x="483" y="56" />
  <rect fill="rgb(0,0,0)" height="40" stroke="rgb(0,0,0)" style="filter:url(#filter_blur);opacity:0.7;fill-opacity:1" width="120" x="33" y="326" />
  <rect fill="rgb(0,0,0)" height="40" stroke="rgb(0,0,0)" style="filter:url(#filter_blur);opacity:0.7;fill-opacity:1" width="120" x="33" y="416" />
  <rect fill="rgb(0,0,0)" height="40" stroke="rgb(0,0,0)" style="filter:url(#filter_blur);opacity:0.7;fill-opacity:1" width="120" x="183" y="146" />
  <rect fill="rgb(0,0,0)" height="40" stroke="rgb(0,0,0)" style="filter:url(#filter_blur);opacity:0.7;fill-opacity:1" width="120" x="483" y="146" />
  <rect fill="rgb(0,0,0)" height="40" stroke="rgb(0,0,0)" style="filter:url(#filter_blur);opacity:0.7;fill-opacity:1" width="120" x="783" y="146" />
  <rect fill="rgb(0,0,0)" height="40" stroke="rgb(0,0,0)" style="filter:url(#filter_blur);opacity:0.7;fill-opacity:1" width="120" x="333" y="326" />
  <rect fill="rgb(0,0,0)" height="40" stroke="rgb(0,0,0)" style="filter:url(#filter_blur);opacity:0.7;fill-opacity:1" width="120" x="783" y="236" />
  <rect fill="rgb(0,0,0)" height="40" stroke="rgb(0,0,0)" style="filter:url(#filter_blur);opacity:0.7;fill-opacity:1" width="120" x="933" y="236" />
  <rect fill="rgb(0,0,0)" height="40" stroke="rgb(0,0,0)" style="filter:url(#filter_blur);opacity:0.7;fill-opacity:1" width="120" x="483" y="236" />
  <rect fill="rgb(0,0,0)" height="40" stroke="rgb(0,0,0)" style="filter:url(#filter_blur);opacity:0.7;fill-opacity:1" width="120" x="633" y="236" />
  <rect fill="rgb(255,255,255)" height="40" stroke="rgb(0,0,0)" width="120" x="30" y="50" />
  <text fill="rgb(0,0,0)" font-family="sans-serif" font-size="10" font-style="normal" font-weight="normal" text-anchor="middle" textLength="83" x="90" y="75">building-blocks</text>
  <rect fill="rgb(255,255,255)" height="40" stroke="rgb(0,0,0)" width="120" x="480" y="50" />
  <text fill="rgb(0,0,0)" font-family="sans-serif" font-size="10" font-style="normal" font-weight="normal" text-anchor="middle" textLength="50" x="540" y="75">Z2-origin</text>
  <rect fill="rgb(255,255,255)" height="40" stroke="rgb(0,0,0)" width="120" x="30" y="320" />
  <text fill="rgb(0,0,0)" font-family="sans-serif" font-size="10" font-style="normal" font-weight="normal" text-anchor="middle" textLength="116" x="90" y="345">radiative seesaw (RS)</text>
  <rect fill="rgb(255,255,255)" height="40" stroke="rgb(0,0,0)" width="120" x="30" y="410" />
  <text fill="rgb(0,0,0)" font-family="sans-serif" font-size="10" font-style="normal" font-weight="normal" text-anchor="middle" textLength="83" x="90" y="435">split-susy like</text>
  <rect fill="rgb(255,255,255)" height="40" stroke="rgb(0,0,0)" width="120" x="180" y="140" />
  <text fill="rgb(0,0,0)" font-family="sans-serif" font-size="10" font-style="normal" font-weight="normal" text-anchor="middle" textLength="50" x="240" y="165">inert-Zee</text>
  <rect fill="rgb(255,255,255)" height="40" stroke="rgb(0,0,0)" width="120" x="480" y="140" />
  <text fill="rgb(0,0,0)" font-family="sans-serif" font-size="10" font-style="normal" font-weight="normal" text-anchor="middle" textLength="56" x="540" y="165">U(1) local</text>
  <rect fill="rgb(255,255,255)" height="40" stroke="rgb(0,0,0)" width="120" x="780" y="140" />
  <text fill="rgb(0,0,0)" font-family="sans-serif" font-size="10" font-style="normal" font-weight="normal" text-anchor="middle" textLength="61" x="840" y="165">U(1) global</text>
  <rect fill="rgb(255,255,255)" height="40" stroke="rgb(0,0,0)" width="120" x="330" y="320" />
  <text fill="rgb(0,0,0)" font-family="sans-serif" font-size="10" font-style="normal" font-weight="normal" text-anchor="middle" textLength="56" x="390" y="345">inverse RS</text>
  <rect fill="rgb(255,255,255)" height="40" stroke="rgb(0,0,0)" width="120" x="780" y="230" />
  <text fill="rgb(0,0,0)" font-family="sans-serif" font-size="10" font-style="normal" font-weight="normal" text-anchor="middle" textLength="66" x="840" y="255">Peccei-Quinn</text>
  <rect fill="rgb(255,255,255)" height="40" stroke="rgb(0,0,0)" width="120" x="930" y="230" />
  <text fill="rgb(0,0,0)" font-family="sans-serif" font-size="10" font-style="normal" font-weight="normal" text-anchor="middle" textLength="39" x="990" y="255">General</text>
  <rect fill="rgb(255,255,255)" height="40" stroke="rgb(0,0,0)" width="120" x="480" y="230" />
  <text fill="rgb(0,0,0)" font-family="sans-serif" font-size="10" font-style="normal" font-weight="normal" text-anchor="middle" textLength="56" x="540" y="255">high scale</text>
  <rect fill="rgb(255,255,255)" height="40" stroke="rgb(0,0,0)" width="120" x="630" y="230" />
  <text fill="rgb(0,0,0)" font-family="sans-serif" font-size="10" font-style="normal" font-weight="normal" text-anchor="middle" textLength="50" x="690" y="255">low scale</text>
  <path d="M 90 90 L 90 115" fill="none" stroke="rgb(0,0,0)" />
  <path d="M 90 115 L 240 115" fill="none" stroke="rgb(0,0,0)" />
  <path d="M 240 115 L 240 132" fill="none" stroke="rgb(0,0,0)" />
  <polygon fill="rgb(0,0,0)" points="240,139 236,132 244,132 240,139" stroke="rgb(0,0,0)" />
  <path d="M 90 90 L 90 115" fill="none" stroke="rgb(0,0,0)" />
  <path d="M 90 115 L 390 115" fill="none" stroke="rgb(0,0,0)" />
  <path d="M 390 115 L 390 312" fill="none" stroke="rgb(0,0,0)" />
  <polygon fill="rgb(0,0,0)" points="390,319 386,312 394,312 390,319" stroke="rgb(0,0,0)" />
  <path d="M 90 90 L 90 312" fill="none" stroke="rgb(0,0,0)" />
  <polygon fill="rgb(0,0,0)" points="90,319 86,312 94,312 90,319" stroke="rgb(0,0,0)" />
  <path d="M 540 90 L 540 115" fill="none" stroke="rgb(0,0,0)" />
  <path d="M 540 115 L 840 115" fill="none" stroke="rgb(0,0,0)" />
  <path d="M 840 115 L 840 132" fill="none" stroke="rgb(0,0,0)" />
  <polygon fill="rgb(0,0,0)" points="840,139 836,132 844,132 840,139" stroke="rgb(0,0,0)" />
  <path d="M 540 90 L 540 132" fill="none" stroke="rgb(0,0,0)" />
  <polygon fill="rgb(0,0,0)" points="540,139 536,132 544,132 540,139" stroke="rgb(0,0,0)" />
  <path d="M 90 360 L 90 402" fill="none" stroke="rgb(0,0,0)" />
  <polygon fill="rgb(0,0,0)" points="90,409 86,402 94,402 90,409" stroke="rgb(0,0,0)" />
  <path d="M 540 180 L 540 205" fill="none" stroke="rgb(0,0,0)" />
  <path d="M 540 205 L 690 205" fill="none" stroke="rgb(0,0,0)" />
  <path d="M 690 205 L 690 222" fill="none" stroke="rgb(0,0,0)" />
  <polygon fill="rgb(0,0,0)" points="690,229 686,222 694,222 690,229" stroke="rgb(0,0,0)" />
  <path d="M 540 180 L 540 222" fill="none" stroke="rgb(0,0,0)" />
  <polygon fill="rgb(0,0,0)" points="540,229 536,222 544,222 540,229" stroke="rgb(0,0,0)" />
  <path d="M 840 180 L 840 205" fill="none" stroke="rgb(0,0,0)" />
  <path d="M 840 205 L 990 205" fill="none" stroke="rgb(0,0,0)" />
  <path d="M 990 205 L 990 222" fill="none" stroke="rgb(0,0,0)" />
  <polygon fill="rgb(0,0,0)" points="990,229 986,222 994,222 990,229" stroke="rgb(0,0,0)" />
  <path d="M 840 180 L 840 222" fill="none" stroke="rgb(0,0,0)" />
  <polygon fill="rgb(0,0,0)" points="840,229 836,222 844,222 840,229" stroke="rgb(0,0,0)" />
  <path d="M 840 270 L 840 295" fill="none" stroke="rgb(255,0,0)" />
  <path d="M 390 295 L 536 295" fill="none" stroke="rgb(255,0,0)" />
  <path d="M 536.0 295.0 A4,4 0 0 1 544.0 295.0" fill="none" stroke="rgb(255,0,0)" />
  <path d="M 544 295 L 840 295" fill="none" stroke="rgb(255,0,0)" />
  <path d="M 390 295 L 390 312" fill="none" stroke="rgb(255,0,0)" />
  <polygon fill="rgb(255,0,0)" points="390,319 386,312 394,312 390,319" stroke="rgb(255,0,0)" />
  <path d="M 540 270 L 540 385" fill="none" stroke="rgb(0,128,0)" />
  <path d="M 90 385 L 540 385" fill="none" stroke="rgb(0,128,0)" />
  <path d="M 90 385 L 90 402" fill="none" stroke="rgb(0,128,0)" />
  <polygon fill="rgb(0,128,0)" points="90,409 86,402 94,402 90,409" stroke="rgb(0,128,0)" />
  <path d="M 540 270 L 540 295" fill="none" stroke="rgb(0,128,0)" />
  <path d="M 90 295 L 386 295" fill="none" stroke="rgb(0,128,0)" />
  <path d="M 386.0 295.0 A4,4 0 0 1 394.0 295.0" fill="none" stroke="rgb(0,128,0)" />
  <path d="M 394 295 L 540 295" fill="none" stroke="rgb(0,128,0)" />
  <path d="M 90 295 L 90 312" fill="none" stroke="rgb(0,128,0)" />
  <polygon fill="rgb(0,128,0)" points="90,319 86,312 94,312 90,319" stroke="rgb(0,128,0)" />
  <rect fill="white" height="14" stroke="rgb(0,0,0)" width="49" x="336" y="301" />
  <text fill="rgb(0,0,0)" font-family="sans-serif" font-size="10" font-style="normal" font-weight="normal" text-anchor="middle" textLength="33" x="360" y="313">real S</text>
  <rect fill="white" height="14" stroke="rgb(0,0,0)" width="55" x="550" y="121" />
  <text fill="rgb(0,0,0)" font-family="sans-serif" font-size="10" font-style="normal" font-weight="normal" text-anchor="middle" textLength="39" x="577" y="133">comp. S</text>
  <rect fill="white" height="14" stroke="rgb(0,0,0)" width="55" x="783" y="276" />
  <text fill="rgb(0,0,0)" font-family="sans-serif" font-size="10" font-style="normal" font-weight="normal" text-anchor="middle" textLength="39" x="810" y="288">L numb.</text>
</svg>
