<?xml version="1.0" encoding="UTF-8" standalone="no"?>
<!-- Created with Inkscape (http://www.inkscape.org/) -->

<svg
   xmlns:dc="http://purl.org/dc/elements/1.1/"
   xmlns:cc="http://creativecommons.org/ns#"
   xmlns:rdf="http://www.w3.org/1999/02/22-rdf-syntax-ns#"
   xmlns:svg="http://www.w3.org/2000/svg"
   xmlns="http://www.w3.org/2000/svg"
   xmlns:sodipodi="http://sodipodi.sourceforge.net/DTD/sodipodi-0.dtd"
   xmlns:inkscape="http://www.inkscape.org/namespaces/inkscape"
   id="svg2"
   version="1.1"
   inkscape:version="0.47 r22583"
   width="854.13251"
   height="166.74191"
   xml:space="preserve"
   sodipodi:docname="gluonfusion.eps"><sodipodi:namedview
     pagecolor="#ffffff"
     bordercolor="#666666"
     borderopacity="1"
     objecttolerance="10"
     gridtolerance="10"
     guidetolerance="10"
     inkscape:pageopacity="0"
     inkscape:pageshadow="2"
     inkscape:window-width="1680"
     inkscape:window-height="975"
     id="namedview4"
     showgrid="false"
     inkscape:zoom="1.5653309"
     inkscape:cx="426.42741"
     inkscape:cy="-44.397556"
     inkscape:window-x="0"
     inkscape:window-y="24"
     inkscape:window-maximized="1"
     inkscape:current-layer="layer3" /><metadata
     id="metadata8"><rdf:RDF><cc:Work
         rdf:about=""><dc:format>image/svg+xml</dc:format><dc:type
           rdf:resource="http://purl.org/dc/dcmitype/StillImage" /><dc:title></dc:title></cc:Work></rdf:RDF></metadata><defs
     id="defs6"><inkscape:perspective
       sodipodi:type="inkscape:persp3d"
       inkscape:vp_x="0 : 0.5 : 1"
       inkscape:vp_y="0 : 1000 : 0"
       inkscape:vp_z="1 : 0.5 : 1"
       inkscape:persp3d-origin="0.5 : 0.33333333 : 1"
       id="perspective10" /><inkscape:perspective
       id="perspective5599"
       inkscape:persp3d-origin="0.5 : 0.33333333 : 1"
       inkscape:vp_z="1 : 0.5 : 1"
       inkscape:vp_y="0 : 1000 : 0"
       inkscape:vp_x="0 : 0.5 : 1"
       sodipodi:type="inkscape:persp3d" /><inkscape:perspective
       id="perspective5616"
       inkscape:persp3d-origin="0.5 : 0.33333333 : 1"
       inkscape:vp_z="1 : 0.5 : 1"
       inkscape:vp_y="0 : 1000 : 0"
       inkscape:vp_x="0 : 0.5 : 1"
       sodipodi:type="inkscape:persp3d" /><inkscape:perspective
       id="perspective5616-9"
       inkscape:persp3d-origin="0.5 : 0.33333333 : 1"
       inkscape:vp_z="1 : 0.5 : 1"
       inkscape:vp_y="0 : 1000 : 0"
       inkscape:vp_x="0 : 0.5 : 1"
       sodipodi:type="inkscape:persp3d" /></defs><g
     id="g12"
     inkscape:groupmode="layer"
     inkscape:label="ink_ext_XXXXXX"
     transform="matrix(1.25,0,0,-1.25,35.547868,906.3167)"><g
       transform="matrix(371.28,0,0,-130.56,111.948,719.628)"
       id="g16"><rect
         id="rect18"
         style="fill:#ffffff;fill-opacity:1;fill-rule:nonzero"
         transform="matrix(1,0,0,-1,0,1)"
         height="1"
         width="1"
         y="0"
         x="0" /></g><path
       id="path20"
       style="fill:none;stroke:#800000;stroke-width:1;stroke-linecap:butt;stroke-linejoin:miter;stroke-miterlimit:10;stroke-opacity:1;stroke-dasharray:none"
       d="m 138.52,696.56 c 0.612,3.745 2.965,7.475 8.185,7.43 10.229,-0.088 10.1,-15.088 3.35,-15.03 -6.75,0.058 -6.62,15.058 5.93,14.95 12.549,-0.108 12.42,-15.108 5.67,-15.05 -6.75,0.058 -6.62,15.058 5.93,14.95 12.549,-0.108 12.42,-15.108 5.67,-15.05 -6.75,0.058 -6.62,15.058 5.93,14.95 12.549,-0.108 12.42,-15.108 5.67,-15.05 -6.75,0.058 -6.62,15.058 5.93,14.95 12.549,-0.108 12.42,-15.108 5.67,-15.05 -6.75,0.058 -6.62,15.058 5.93,14.95 12.549,-0.108 12.42,-15.108 5.67,-15.05 -6.75,0.058 -6.62,15.058 5.93,14.95 12.549,-0.108 12.42,-15.108 5.67,-15.05 -6.75,0.058 -6.62,15.058 5.93,14.95 12.549,-0.108 12.42,-15.108 5.67,-15.05 -6.75,0.058 -6.62,15.058 5.93,14.95 12.549,-0.108 12.42,-15.108 5.67,-15.05 -6.75,0.058 -6.62,15.058 3.61,14.97 5.22,-0.045 7.507,-3.815 8.055,-7.57" /><path
       id="path22"
       style="fill:none;stroke:#231f20;stroke-width:1;stroke-linecap:butt;stroke-linejoin:miter;stroke-miterlimit:10;stroke-opacity:1;stroke-dasharray:none"
       d="m 141.52,600.56 c 0.598,3.745 2.891,7.475 7.976,7.43 10.14,-0.09 10.008,-15.09 3.258,-15.03 -6.75,0.06 -6.617,15.06 5.782,14.95 12.4,-0.11 12.268,-15.11 5.518,-15.05 -6.75,0.06 -6.617,15.06 5.782,14.95 12.4,-0.11 12.268,-15.11 5.518,-15.05 -6.75,0.06 -6.617,15.06 5.782,14.95 12.4,-0.11 12.268,-15.11 5.518,-15.05 -6.75,0.06 -6.617,15.06 5.782,14.95 12.4,-0.11 12.268,-15.11 5.518,-15.05 -6.75,0.06 -6.617,15.06 5.782,14.95 12.4,-0.11 12.268,-15.11 5.518,-15.05 -6.75,0.06 -6.617,15.06 5.782,14.95 12.4,-0.11 12.268,-15.11 5.518,-15.05 -6.75,0.06 -6.617,15.06 5.782,14.95 12.4,-0.11 12.268,-15.109 5.518,-15.05 -6.75,0.06 -6.617,15.06 5.782,14.95 12.4,-0.11 12.268,-15.109 5.518,-15.05 -6.75,0.06 -6.617,15.06 3.523,14.97 5.084,-0.045 7.311,-3.815 7.843,-7.57" /><path
       id="path24"
       style="fill:none;stroke:#800000;stroke-width:1;stroke-linecap:butt;stroke-linejoin:miter;stroke-miterlimit:10;stroke-opacity:1;stroke-dasharray:none"
       d="m 253.52,649.56 -1,50" /><path
       id="path26"
       style="fill:none;stroke:#231f20;stroke-width:1;stroke-linecap:butt;stroke-linejoin:miter;stroke-miterlimit:10;stroke-opacity:1;stroke-dasharray:none"
       d="m 253.57,647.061 1.9,5.039 -1.98,-1.04 -2.02,0.96 2.1,-4.959 z" /><path
       id="path28"
       style="fill:#231f20;fill-opacity:1;fill-rule:nonzero;stroke:none"
       d="m 253.57,647.061 1.9,5.039 -1.98,-1.04 -2.02,0.96" /><path
       id="path30"
       style="fill:none;stroke:#800000;stroke-width:1;stroke-linecap:butt;stroke-linejoin:miter;stroke-miterlimit:10;stroke-opacity:1;stroke-dasharray:none"
       d="m 254.52,599.56 -1,50" /><path
       id="path32"
       style="fill:none;stroke:#000080;stroke-width:1;stroke-linecap:butt;stroke-linejoin:miter;stroke-miterlimit:10;stroke-opacity:1;stroke-dasharray:none"
       d="m 303.02,623.06 -48.5,-23.5" /><path
       id="path34"
       style="fill:none;stroke:#231f20;stroke-width:1;stroke-linecap:butt;stroke-linejoin:miter;stroke-miterlimit:10;stroke-opacity:1;stroke-dasharray:none"
       d="m 305.27,624.15 -5.372,-0.38 1.772,-1.364 -0.028,-2.236 3.628,3.98 z" /><path
       id="path36"
       style="fill:#231f20;fill-opacity:1;fill-rule:nonzero;stroke:none"
       d="m 305.27,624.15 -5.372,-0.38 1.772,-1.364 -0.028,-2.236" /><path
       id="path38"
       style="fill:none;stroke:#000080;stroke-width:1;stroke-linecap:butt;stroke-linejoin:miter;stroke-miterlimit:10;stroke-opacity:1;stroke-dasharray:none"
       d="m 351.52,646.56 -48.5,-23.5" /><path
       id="path40"
       style="fill:none;stroke:#000080;stroke-width:1;stroke-linecap:butt;stroke-linejoin:miter;stroke-miterlimit:10;stroke-opacity:1;stroke-dasharray:none"
       d="m 302.02,673.06 49.5,-26.5" /><path
       id="path42"
       style="fill:none;stroke:#231f20;stroke-width:1;stroke-linecap:butt;stroke-linejoin:miter;stroke-miterlimit:10;stroke-opacity:1;stroke-dasharray:none"
       d="m 299.816,674.24 3.464,-4.123 0.063,2.235 1.825,1.291 -5.352,0.597 z" /><path
       id="path44"
       style="fill:#231f20;fill-opacity:1;fill-rule:nonzero;stroke:none"
       d="m 299.816,674.24 3.464,-4.123 0.063,2.235 1.825,1.291" /><path
       id="path46"
       style="fill:none;stroke:#800000;stroke-width:1;stroke-linecap:butt;stroke-linejoin:miter;stroke-miterlimit:10;stroke-opacity:1;stroke-dasharray:none"
       d="m 252.52,699.56 49.5,-26.5" /><path
       id="path48"
       style="fill:none;stroke:#231f20;stroke-width:1;stroke-linecap:butt;stroke-linejoin:miter;stroke-miterlimit:10;stroke-opacity:1;stroke-dasharray:none"
       d="m 351.52,646.56 0,0" /><path
       id="path50"
       style="fill:none;stroke:#000080;stroke-width:1;stroke-linecap:butt;stroke-linejoin:miter;stroke-miterlimit:10;stroke-opacity:1;stroke-dasharray:9.69231, 9.69231;stroke-dashoffset:0"
       d="m 477.52,646.56 -126,0" /><g
       id="g52">































</g><g
       transform="matrix(372.12,0,0,-0.48,111.588,720.108)"
       id="g78"><rect
         id="rect80"
         style="fill:#ffffff;fill-opacity:1;fill-rule:nonzero"
         transform="matrix(1,0,0,-1,0,1)"
         height="1"
         width="1"
         y="0"
         x="0" /></g><g
       transform="matrix(0.48,0,0,-130.92,111.588,719.748)"
       id="g82"><rect
         id="rect84"
         style="fill:#ffffff;fill-opacity:1;fill-rule:nonzero"
         transform="matrix(1,0,0,-1,0,1)"
         height="1"
         width="1"
         y="0"
         x="0" /></g><g
       transform="matrix(0.48,0,0,-130.92,483.228,719.748)"
       id="g86"><rect
         id="rect88"
         style="fill:#ffffff;fill-opacity:1;fill-rule:nonzero"
         transform="matrix(1,0,0,-1,0,1)"
         height="1"
         width="1"
         y="0"
         x="0" /></g><g
       transform="matrix(372.12,0,0,-0.48,111.588,589.068)"
       id="g90"><rect
         id="rect92"
         style="fill:#ffffff;fill-opacity:1;fill-rule:nonzero"
         transform="matrix(1,0,0,-1,0,1)"
         height="1"
         width="1"
         y="0"
         x="0" /></g></g><g
     inkscape:groupmode="layer"
     id="layer2"
     inkscape:label="curr"
     style="display:inline"
     transform="translate(175.03286,6.1817)"><g
       id="g2984"
       transform="translate(-228.92199,-196.21885)"
       style="fill:#800000"><path
         id="path68"
         d="m 241.36585,568.07828 c -0.43266,-0.10954 -1.2843,-0.3204 -1.71149,-0.42445 -2.93006,-2.04832 -4.84694,-5.15912 -7.44841,-7.55795 -2.74933,1.57183 -5.10162,3.74337 -7.92763,5.18923 -3.6092,1.82925 -7.71677,2.63434 -11.74767,2.24549 -0.0986,-0.79962 -0.18622,-1.59648 -0.27384,-2.3961 0.41076,-0.0712 1.22406,-0.20811 1.62933,-0.27383 0.67365,-0.10953 1.35276,-0.2355 2.02641,-0.35599 -0.27931,-2.88625 -0.47374,-5.79169 -0.23276,-8.69438 0.25193,-3.82827 1.51159,-7.61818 0.93105,-11.47383 -0.5422,-2.86983 -2.6891,-4.99482 -4.68264,-6.95551 -3.32988,-3.23677 -6.70631,-6.72274 -8.11932,-11.26845 -0.31765,-0.88177 -0.15609,-1.82377 -0.0959,-2.7384 2.95198,0.98582 4.84147,3.69957 6.76382,5.98338 1.65398,2.8753 3.47774,5.74787 6.13398,7.81809 0.11501,-1.88401 0.14787,-3.7735 0.19168,-5.66846 1.69233,-0.2793 3.26689,-0.93926 4.61419,-2.01271 2.25642,-1.71423 5.19472,-0.39706 7.32518,0.88997 6.23805,4.10211 10.81663,11.24381 10.78924,18.8401 -0.0439,3.48871 -2.19619,6.34759 -4.68264,8.57115 0.12597,0.15883 0.38064,0.49839 0.5066,0.65722 2.37692,2.88626 5.7643,5.63286 6.01076,9.62543 z m -23.52274,-4.03913 c 4.20068,-1.38562 8.78475,-3.11901 11.36431,-6.94181 -3.06152,-2.86435 -5.78896,-6.11481 -9.22836,-8.55746 -0.77223,5.15365 -0.79961,10.44421 -2.13595,15.49927 z m 14.0753,-9.44743 c 1.28158,-0.0219 1.67864,-1.5554 2.31394,-2.43716 2.5248,-4.78123 0.82426,-10.6003 -2.31394,-14.66406 -2.92459,-3.40108 -7.45935,-5.00851 -11.88458,-4.7511 l 0.41075,0.38337 c 0.0329,3.09438 -0.10954,6.1915 0.21907,9.26944 0.48743,0.90914 1.2131,1.65399 1.90318,2.40979 3.13272,3.24224 5.90122,6.87608 9.35158,9.78972 z"
         style="fill:#800000;display:inline"
         transform="matrix(1.25,0,0,-1.25,-139.485,900.135)" /><path
         style="fill:#800000;display:inline"
         id="path78"
         d="m 184.0569,561.87583 c 7.06504,0.48743 14.1246,1.99902 21.22797,1.06249 0.12597,-0.41076 0.37242,-1.23775 0.49839,-1.65398 -4.66073,-2.46455 -10.07179,-2.16333 -15.13232,-3.09985 -0.33408,-2.40978 -0.76676,-4.83053 -1.70875,-7.09243 -1.61018,-3.92684 -4.09663,-7.46484 -5.25223,-11.58337 2.32215,-0.52029 4.69907,-1.05154 7.09242,-0.83247 2.25643,0.19169 4.41975,0.90367 6.65427,1.2487 -0.16977,-1.25418 -0.46004,-2.77124 -1.86757,-3.18748 -4.28831,-1.29252 -8.84499,-0.59697 -13.23189,-1.11178 -3.96518,-4.34308 -4.62786,-10.71805 -5.10434,-16.35365 -1.32538,0.19169 -2.57409,0.69007 -3.69135,1.40754 0.16977,4.44714 1.47873,8.74092 3.48323,12.69515 0.66817,1.62661 1.86758,3.33536 1.413,5.1646 -1.31442,2.30572 -3.82278,3.84469 -4.53477,6.52283 -0.71745,1.64303 0.26837,3.27511 0.97486,4.72099 0.24099,-0.0712 0.72295,-0.20812 0.96393,-0.27932 2.27285,-2.04832 2.86982,-5.1865 4.51285,-7.66749 2.89174,5.09341 4.90719,10.61947 7.49771,15.86075 -4.82504,0.13692 -9.65556,-0.35052 -14.46964,0.115 0.32313,1.14465 0.55864,2.65624 1.94973,2.93555 2.84793,0.7558 5.82729,0.70103 8.7245,1.12822 z"
         transform="matrix(1.25,0,0,-1.25,-139.485,900.135)" /><path
         style="fill:#800000;display:inline"
         id="path82"
         d="m 262.2214,552.25314 c 1.88949,2.8041 2.66171,6.13398 4.14045,9.12978 1.43491,-1.89496 2.21261,-4.32666 1.69231,-6.69261 -1.06248,-6.28187 -6.11207,-10.73448 -8.53281,-16.43033 0.61888,0.0877 1.24323,0.18074 1.86758,0.28479 1.73066,0.32861 3.42299,0.89272 4.98387,1.73615 1.69232,1.51158 2.98483,3.46131 5.0222,4.5731 0.76674,-1.45683 0.83794,-3.09438 0.83246,-4.69907 -0.28478,-0.9201 -0.78865,-1.83472 -1.74709,-2.17428 -4.18972,-1.90592 -8.75188,-2.70552 -13.16616,-3.89946 -1.99901,-3.57634 -3.18748,-7.76059 -6.33663,-10.57018 -1.17202,-1.00772 -2.49192,-2.34952 -4.18425,-1.88948 0.70103,5.08792 3.54895,9.41458 5.62464,13.9822 -0.45456,1.75257 -1.9552,3.06699 -2.67813,4.73193 -1.71971,2.96294 -1.65946,6.65976 -0.18073,9.69936 0.35599,0.0603 1.06796,0.17526 1.42944,0.2355 0.81603,-3.77896 1.3637,-7.70033 3.31892,-11.10689 2.90268,4.19521 5.07696,8.84499 7.91393,13.08949 z"
         transform="matrix(1.25,0,0,-1.25,-139.485,900.135)" /><path
         style="fill:#800000;display:inline"
         id="path88"
         d="m 155.47911,549.72835 c 0.96938,2.05926 1.82923,5.15365 4.69906,4.86885 0.11502,-0.3998 0.34504,-1.20489 0.46006,-1.61017 -0.60793,-1.16656 -0.95844,-2.55218 -1.96069,-3.46133 -1.04059,-0.51481 -2.1688,-0.0877 -3.19843,0.20265 z"
         transform="matrix(1.25,0,0,-1.25,-139.485,900.135)" /><path
         style="fill:#800000;display:inline"
         id="path104"
         d="m 154.81094,536.0638 c -0.25742,3.46133 -0.26837,7.4265 2.22356,10.15941 0.4984,-0.43814 1.00225,-0.87628 1.50064,-1.3199 0.87081,-3.2532 -0.62435,-6.45164 -0.36694,-9.69389 0.70103,-2.59051 4.07472,-1.41301 6.00254,-2.30024 0.0439,-0.81604 0.0767,-1.63208 0.0877,-2.44812 -1.86211,-0.1424 -3.88852,-0.58054 -5.62465,0.33956 -2.0045,1.04059 -3.31893,3.09986 -3.82279,5.26318 z"
         transform="matrix(1.25,0,0,-1.25,-139.485,900.135)" /></g><g
       transform="matrix(2.0403905,0,0,2.0403905,-131.97535,-956.59344)"
       id="g3154"><g
         style="font-style:normal;font-variant:normal;font-weight:normal;font-stretch:normal;letter-spacing:normal;word-spacing:normal;text-anchor:start;fill:none;stroke:#000000;stroke-linecap:butt;stroke-linejoin:miter;stroke-miterlimit:10.43299961;stroke-opacity:1;stroke-dasharray:none;stroke-dashoffset:0"
         id="content"
         transform="matrix(0.23820273,0,0,-0.23820273,-41.685477,640.59938)"
         xml:space="preserve"
         stroke-miterlimit="10.433"
         font-style="normal"
         font-variant="normal"
         font-weight="normal"
         font-stretch="normal"
         font-size-adjust="none"
         letter-spacing="normal"
         word-spacing="normal"><path
           style="fill:#000000;stroke-width:0"
           d="m 493.86,440.62 0,0.02 0,0.01 0,0.02 -0.01,0.02 0,0.01 0,0.02 -0.01,0.02 0,0.02 -0.01,0.02 -0.01,0.02 -0.01,0.02 -0.01,0.02 -0.01,0.02 -0.01,0.02 -0.01,0.02 -0.02,0.02 -0.01,0.02 -0.02,0.02 -0.02,0.02 -0.02,0.02 -0.02,0.02 -0.02,0.01 -0.03,0.02 -0.03,0.01 -0.02,0.01 -0.02,0.01 -0.01,0 -0.02,0.01 -0.02,0 -0.01,0.01 -0.02,0 -0.02,0.01 -0.01,0 -0.02,0 -0.02,0 -0.02,0 -0.02,0.01 -0.02,0 -0.02,0 c -0.15,0 -0.2,-0.05 -0.75,-0.6 l -3.49,-3.84 c -0.44,0.7 -2.73,4.44 -8.26,4.44 -11.11,0 -22.32,-11.01 -22.32,-22.57 0,-7.92 5.53,-13.65 13.6,-13.65 2.19,0 4.43,0.45 6.23,1.2 2.49,1 3.43,2.04 4.33,3.04 0.45,-1.25 1.74,-3.09 2.24,-3.09 0.25,0 0.35,0.15 0.35,0.2 0.1,0.1 0.6,1.99 0.85,3.04 l 0.95,3.83 c 0.19,0.85 0.44,1.7 0.64,2.54 0.55,2.25 0.6,2.34 3.44,2.39 0.25,0 0.79,0.06 0.79,1 0,0.35 -0.24,0.55 -0.64,0.55 h -12.21 c -0.45,0 -1.04,0 -1.04,-1 0,-0.55 0.39,-0.55 1.49,-0.55 0.05,0 1.5,0 2.64,-0.09 1.3,-0.16 1.55,-0.3 1.55,-0.95 0,-0.45 -0.55,-2.69 -1.05,-4.53 -1.4,-5.48 -7.87,-6.03 -9.61,-6.03 -4.79,0 -10.02,2.84 -10.02,10.46 0,1.54 0.5,9.76 5.73,16.24 2.69,3.39 7.52,6.42 12.46,6.42 5.08,0 8.02,-3.83 8.02,-9.61 0,-1.99 -0.16,-2.04 -0.16,-2.54 0,-0.5 0.55,-0.5 0.75,-0.5 0.65,0 0.65,0.1 0.9,1 z"
           id="path3157" /></g></g><g
       id="g3397"
       transform="matrix(2.0403905,0,0,2.0403905,18.581553,-1016.3773)"><g
         word-spacing="normal"
         letter-spacing="normal"
         font-size-adjust="none"
         font-stretch="normal"
         font-weight="normal"
         font-variant="normal"
         font-style="normal"
         stroke-miterlimit="10.433"
         xml:space="preserve"
         transform="matrix(0.23820273,0,0,-0.23820273,-41.685477,640.59938)"
         id="g3399"
         style="font-style:normal;font-variant:normal;font-weight:normal;font-stretch:normal;letter-spacing:normal;word-spacing:normal;text-anchor:start;fill:none;stroke:#000000;stroke-linecap:butt;stroke-linejoin:miter;stroke-miterlimit:10.43299961;stroke-opacity:1;stroke-dasharray:none;stroke-dashoffset:0"><path
           id="path3401"
           d="m 466.26,425.93 h 4.69 c 0.99,0 1.49,0 1.49,0.99 0,0.55 -0.5,0.55 -1.4,0.55 h -4.38 c 1.79,7.07 2.04,8.07 2.04,8.37 0,0.84 -0.59,1.34 -1.44,1.34 -0.15,0 -1.55,-0.05 -1.99,-1.79 l -1.95,-7.92 h -4.68 c -1,0 -1.5,0 -1.5,-0.95 0,-0.59 0.4,-0.59 1.4,-0.59 h 4.39 c -3.59,-14.15 -3.79,-15 -3.79,-15.89 0,-2.7 1.89,-4.59 4.58,-4.59 5.08,0 7.92,7.28 7.92,7.67 0,0.5 -0.4,0.5 -0.6,0.5 -0.45,0 -0.49,-0.15 -0.74,-0.69 -2.14,-5.19 -4.78,-6.38 -6.48,-6.38 -1.05,0 -1.54,0.65 -1.54,2.29 0,1.2 0.1,1.54 0.29,2.39 z"
           style="fill:#000000;stroke-width:0" /></g></g><g
       transform="matrix(2.0403905,0,0,2.0403905,105.72248,-1061.0963)"
       id="g3551"><g
         style="font-style:normal;font-variant:normal;font-weight:normal;font-stretch:normal;letter-spacing:normal;word-spacing:normal;text-anchor:start;fill:none;stroke:#000000;stroke-linecap:butt;stroke-linejoin:miter;stroke-miterlimit:10.43299961;stroke-opacity:1;stroke-dasharray:none;stroke-dashoffset:0"
         id="g3553"
         transform="matrix(0.23820273,0,0,-0.23820273,-41.685477,640.59938)"
         xml:space="preserve"
         stroke-miterlimit="10.433"
         font-style="normal"
         font-variant="normal"
         font-weight="normal"
         font-stretch="normal"
         font-size-adjust="none"
         letter-spacing="normal"
         word-spacing="normal"><polygon
           style="fill:#000000;stroke-width:0"
           points="477.42,442.84 477.42,444.39 459.44,444.39 459.44,442.84 "
           id="polygon3555" /><path
           style="fill:#000000;stroke-width:0"
           d="m 466.26,425.93 h 4.69 c 0.99,0 1.49,0 1.49,0.99 0,0.55 -0.5,0.55 -1.4,0.55 h -4.38 c 1.79,7.07 2.04,8.07 2.04,8.37 0,0.84 -0.59,1.34 -1.44,1.34 -0.15,0 -1.55,-0.05 -1.99,-1.79 l -1.95,-7.92 h -4.68 c -1,0 -1.5,0 -1.5,-0.95 0,-0.59 0.4,-0.59 1.4,-0.59 h 4.39 c -3.59,-14.15 -3.79,-15 -3.79,-15.89 0,-2.7 1.89,-4.59 4.58,-4.59 5.08,0 7.92,7.28 7.92,7.67 0,0.5 -0.4,0.5 -0.6,0.5 -0.45,0 -0.49,-0.15 -0.74,-0.69 -2.14,-5.19 -4.78,-6.38 -6.48,-6.38 -1.05,0 -1.54,0.65 -1.54,2.29 0,1.2 0.1,1.54 0.29,2.39 z"
           id="path3557" /></g></g><g
       id="g3715"
       transform="matrix(2.0403905,0,0,2.0403905,204.21368,-1030.8034)"><g
         word-spacing="normal"
         letter-spacing="normal"
         font-size-adjust="none"
         font-stretch="normal"
         font-weight="normal"
         font-variant="normal"
         font-style="normal"
         stroke-miterlimit="10.433"
         xml:space="preserve"
         transform="matrix(0.23820273,0,0,-0.23820273,-41.685477,640.59938)"
         id="g3717"
         style="font-style:normal;font-variant:normal;font-weight:normal;font-stretch:normal;letter-spacing:normal;word-spacing:normal;text-anchor:start;fill:none;stroke:#000000;stroke-linecap:butt;stroke-linejoin:miter;stroke-miterlimit:10.43299961;stroke-opacity:1;stroke-dasharray:none;stroke-dashoffset:0"><path
           id="path3719"
           d="m 494.01,436.19 0.04,0.16 0.04,0.16 0.04,0.15 0.04,0.14 0.04,0.14 0.04,0.12 0.04,0.13 0.05,0.11 0.05,0.11 0.05,0.1 0.06,0.1 0.07,0.09 0.07,0.08 0.08,0.08 0.09,0.08 0.09,0.06 0.11,0.07 0.11,0.05 0.13,0.06 0.14,0.05 0.15,0.04 0.16,0.04 0.09,0.01 0.09,0.02 0.09,0.02 0.1,0.01 0.1,0.01 0.1,0.02 0.11,0.01 0.11,0.01 0.12,0.01 0.12,0.01 0.13,0.01 0.13,0 0.13,0.01 0.14,0 0.14,0.01 0.15,0 0.15,0 0.16,0.01 0.16,0 0.17,0 c 1.3,0 1.7,0 1.7,0.99 0,0.55 -0.55,0.55 -0.7,0.55 h -12.8 c -0.4,0 -0.95,0 -0.95,-0.99 0,-0.55 0.45,-0.55 1.4,-0.55 0.09,0 1.04,0 1.89,-0.1 0.89,-0.1 1.34,-0.15 1.34,-0.8 0,-0.2 -0.05,-0.3 -0.2,-0.94 l -2.99,-12.16 h -15.19 l 2.94,11.71 c 0.45,1.79 0.6,2.29 4.18,2.29 1.3,0 1.7,0 1.7,0.99 0,0.55 -0.55,0.55 -0.7,0.55 h -12.8 c -0.4,0 -0.95,0 -0.95,-0.99 0,-0.55 0.45,-0.55 1.4,-0.55 0.1,0 1.04,0 1.89,-0.1 0.9,-0.1 1.35,-0.15 1.35,-0.8 0,-0.2 -0.06,-0.35 -0.2,-0.94 l -6.68,-26.75 c -0.5,-1.95 -0.6,-2.35 -4.53,-2.35 -0.9,0 -1.35,0 -1.35,-0.99 0,-0.55 0.6,-0.55 0.7,-0.55 1.4,0 4.93,0.15 6.32,0.15 1.05,0 2.15,-0.05 3.2,-0.05 1.09,0 2.19,-0.1 3.23,-0.1 0.4,0 1,0 1,1 0,0.54 -0.45,0.54 -1.4,0.54 -1.84,0 -3.23,0 -3.23,0.9 0,0.3 0.1,0.55 0.15,0.85 l 3.38,13.65 h 15.19 c -2.09,-8.27 -3.23,-13.01 -3.43,-13.75 -0.5,-1.6 -1.44,-1.65 -4.53,-1.65 -0.75,0 -1.2,0 -1.2,-0.99 0,-0.55 0.6,-0.55 0.7,-0.55 1.39,0 4.93,0.15 6.32,0.15 1.05,0 2.14,-0.05 3.19,-0.05 1.1,0 2.19,-0.1 3.24,-0.1 0.4,0 1,0 1,1 0,0.54 -0.45,0.54 -1.4,0.54 -1.84,0 -3.24,0 -3.24,0.9 0,0.3 0.1,0.55 0.15,0.85 z"
           style="fill:#000000;stroke-width:0" /><path
           id="path3721"
           d="m 518.99,435.12 0,0.71 -0.02,0.68 -0.03,0.66 -0.04,0.64 -0.06,0.62 -0.08,0.59 -0.09,0.58 -0.11,0.56 -0.12,0.55 -0.15,0.53 -0.17,0.51 -0.19,0.5 -0.21,0.49 -0.24,0.48 -0.26,0.47 -0.14,0.24 -0.15,0.23 c -1.08,1.6 -3.24,2.99 -6.03,2.99 v -0.97 c 1.88,0 3.7,-1.15 4.33,-3.18 0.55,-1.88 0.59,-4.39 0.59,-7.42 0,-2.58 0,-5.17 -0.45,-7.36 -0.7,-3.17 -3.07,-3.94 -4.47,-3.94 h 0 c -1.6,0 -3.73,0.94 -4.43,3.8 -0.49,2.06 -0.49,4.92 -0.49,7.5 0,2.54 0,5.19 0.53,7.11 0.73,2.76 2.96,3.49 4.39,3.49 v 0.97 c -8.09,0 -8.09,-9.52 -8.09,-12.03 0,-2.51 0,-11.82 8.09,-11.82 8.09,0 8.09,9.31 8.09,11.82 z"
           style="fill:#000000;stroke-width:0" /></g></g><g
       id="g4646"
       transform="matrix(2.0403905,0,0,2.0403905,-131.97535,-1074.5934)"><g
         word-spacing="normal"
         letter-spacing="normal"
         font-size-adjust="none"
         font-stretch="normal"
         font-weight="normal"
         font-variant="normal"
         font-style="normal"
         stroke-miterlimit="10.433"
         xml:space="preserve"
         transform="matrix(0.23820273,0,0,-0.23820273,-41.685477,640.59938)"
         id="g4648"
         style="font-style:normal;font-variant:normal;font-weight:normal;font-stretch:normal;letter-spacing:normal;word-spacing:normal;text-anchor:start;fill:none;stroke:#000000;stroke-linecap:butt;stroke-linejoin:miter;stroke-miterlimit:10.43299961;stroke-opacity:1;stroke-dasharray:none;stroke-dashoffset:0"><path
           id="path4650"
           d="m 493.86,440.62 0,0.02 0,0.01 0,0.02 -0.01,0.02 0,0.01 0,0.02 -0.01,0.02 0,0.02 -0.01,0.02 -0.01,0.02 -0.01,0.02 -0.01,0.02 -0.01,0.02 -0.01,0.02 -0.01,0.02 -0.02,0.02 -0.01,0.02 -0.02,0.02 -0.02,0.02 -0.02,0.02 -0.02,0.02 -0.02,0.01 -0.03,0.02 -0.03,0.01 -0.02,0.01 -0.02,0.01 -0.01,0 -0.02,0.01 -0.02,0 -0.01,0.01 -0.02,0 -0.02,0.01 -0.01,0 -0.02,0 -0.02,0 -0.02,0 -0.02,0.01 -0.02,0 -0.02,0 c -0.15,0 -0.2,-0.05 -0.75,-0.6 l -3.49,-3.84 c -0.44,0.7 -2.73,4.44 -8.26,4.44 -11.11,0 -22.32,-11.01 -22.32,-22.57 0,-7.92 5.53,-13.65 13.6,-13.65 2.19,0 4.43,0.45 6.23,1.2 2.49,1 3.43,2.04 4.33,3.04 0.45,-1.25 1.74,-3.09 2.24,-3.09 0.25,0 0.35,0.15 0.35,0.2 0.1,0.1 0.6,1.99 0.85,3.04 l 0.95,3.83 c 0.19,0.85 0.44,1.7 0.64,2.54 0.55,2.25 0.6,2.34 3.44,2.39 0.25,0 0.79,0.06 0.79,1 0,0.35 -0.24,0.55 -0.64,0.55 h -12.21 c -0.45,0 -1.04,0 -1.04,-1 0,-0.55 0.39,-0.55 1.49,-0.55 0.05,0 1.5,0 2.64,-0.09 1.3,-0.16 1.55,-0.3 1.55,-0.95 0,-0.45 -0.55,-2.69 -1.05,-4.53 -1.4,-5.48 -7.87,-6.03 -9.61,-6.03 -4.79,0 -10.02,2.84 -10.02,10.46 0,1.54 0.5,9.76 5.73,16.24 2.69,3.39 7.52,6.42 12.46,6.42 5.08,0 8.02,-3.83 8.02,-9.61 0,-1.99 -0.16,-2.04 -0.16,-2.54 0,-0.5 0.55,-0.5 0.75,-0.5 0.65,0 0.65,0.1 0.9,1 z"
           style="fill:#000000;stroke-width:0" /></g></g><g
       transform="matrix(2.0403905,0,0,2.0403905,106.93269,-970.3773)"
       id="g4652"><g
         style="font-style:normal;font-variant:normal;font-weight:normal;font-stretch:normal;letter-spacing:normal;word-spacing:normal;text-anchor:start;fill:none;stroke:#000000;stroke-linecap:butt;stroke-linejoin:miter;stroke-miterlimit:10.43299961;stroke-opacity:1;stroke-dasharray:none;stroke-dashoffset:0"
         id="g4654"
         transform="matrix(0.23820273,0,0,-0.23820273,-41.685477,640.59938)"
         xml:space="preserve"
         stroke-miterlimit="10.433"
         font-style="normal"
         font-variant="normal"
         font-weight="normal"
         font-stretch="normal"
         font-size-adjust="none"
         letter-spacing="normal"
         word-spacing="normal"><path
           style="fill:#000000;stroke-width:0"
           d="m 466.26,425.93 h 4.69 c 0.99,0 1.49,0 1.49,0.99 0,0.55 -0.5,0.55 -1.4,0.55 h -4.38 c 1.79,7.07 2.04,8.07 2.04,8.37 0,0.84 -0.59,1.34 -1.44,1.34 -0.15,0 -1.55,-0.05 -1.99,-1.79 l -1.95,-7.92 h -4.68 c -1,0 -1.5,0 -1.5,-0.95 0,-0.59 0.4,-0.59 1.4,-0.59 h 4.39 c -3.59,-14.15 -3.79,-15 -3.79,-15.89 0,-2.7 1.89,-4.59 4.58,-4.59 5.08,0 7.92,7.28 7.92,7.67 0,0.5 -0.4,0.5 -0.6,0.5 -0.45,0 -0.49,-0.15 -0.74,-0.69 -2.14,-5.19 -4.78,-6.38 -6.48,-6.38 -1.05,0 -1.54,0.65 -1.54,2.29 0,1.2 0.1,1.54 0.29,2.39 z"
           id="path4656" /></g></g></g><g
     inkscape:groupmode="layer"
     id="layer1"
     inkscape:label="yuk"
     style="display:inline"
     transform="translate(175.03286,6.1817)"><g
       id="g3085"
       style="fill:#000080"><path
         style="fill:#000080;display:inline"
         id="path126-3"
         d="m 501.3175,64.667687 c 0.4587,0.03425 1.37605,0.109625 1.84157,0.143762 -0.56821,3.703675 -2.2044,7.106125 -3.4846,10.597563 -1.95795,5.244012 -4.12126,10.43325 -7.05134,15.218575 -0.24645,0.43815 -0.73936,1.307575 -0.98582,1.738875 4.35404,1.9511 9.13937,0.978987 13.62346,0.116375 1.33498,-0.239613 2.69733,-0.294388 4.05283,-0.294388 -0.75305,3.292925 -4.27188,4.559425 -7.23619,5.0318 -4.29243,0.972125 -8.68753,0.191688 -13.02103,0.383375 -3.76528,4.162346 -4.3198,10.378486 -7.82493,14.780436 -0.8626,1.29389 -2.48509,1.20489 -3.85428,1.34866 -0.17115,-2.69732 0.22593,-5.4357 1.36919,-7.8934 1.75941,-3.97066 4.22396,-7.564808 6.60636,-11.179471 -1.32126,-2.053787 -2.71101,-4.080187 -3.8269,-6.26405 -1.84156,-3.429825 -2.49194,-7.5511 -1.38289,-11.323225 0.40392,0 1.21859,0 1.6225,0 1.28704,3.511975 1.64989,7.564788 4.43618,10.323725 0.54084,0.65035 1.1159,1.273338 1.69781,1.896325 1.62934,-3.457225 2.93691,-7.0445 4.46358,-10.542787 2.39607,-5.02495 5.18922,-9.94035 8.9545,-14.082163 z" /><path
         style="fill:#000080;display:inline"
         id="path130-0"
         d="m 553.19625,69.233949 c 1.06796,-0.24645 2.14278,-0.431287 3.2039,-0.718825 0.54767,0.903675 1.39657,1.745725 1.32811,2.895838 0.089,3.484612 0.49976,6.96235 1.37605,10.344262 0.86944,3.717363 1.6841,7.448413 3.00537,11.035688 0.3286,5.127637 1.0269,10.453788 -0.80097,15.396588 -1.43766,2.23179 -2.69731,4.72371 -4.87434,6.33252 -5.22346,1.21173 -11.45329,-2.56725 -11.82297,-8.17408 1.17066,0.17115 2.35501,0.3423 3.50512,0.6572 2.01958,0.60245 4.34035,2.8137 6.35991,1.12958 1.69779,-1.94423 2.88215,-4.31295 3.14914,-6.90072 1.35551,-6.647438 -0.30121,-13.356488 -1.67725,-19.846463 -1.8758,4.0049 -3.0533,8.55745 -6.36676,11.692912 -1.7731,1.821025 -4.73055,2.663088 -7.04449,1.396575 -3.245,-1.752562 -4.77164,-5.456237 -5.40832,-8.9066 -0.42445,-4.217112 -0.5819,-8.7286 1.45136,-12.589737 0.64351,0.06175 1.93056,0.178 2.56722,0.239612 -0.0343,2.307088 -0.36967,4.6005 -0.45866,6.907588 -0.23277,3.89535 1.36919,7.53055 2.73153,11.083612 3.12861,-0.554525 5.07286,-3.4093 6.30513,-6.09975 2.09487,-4.751112 2.48509,-9.988275 3.04647,-15.081662 0.10962,-0.198525 0.32175,-0.5956 0.42445,-0.794138 z" /><path
         id="path132-5"
         d="m 675.37961,69.076499 c -2.75208,2.300238 -4.40879,5.545225 -6.05869,8.660138 -0.41075,0.78045 -0.81124,1.574575 -1.21515,2.361862 -3.70366,-1.45135 -7.49634,-2.64255 -11.3643,-3.5599 -0.2533,1.026888 -0.39707,2.0709 -0.47921,3.132025 0.7462,0.390225 1.50611,0.800988 2.25915,1.19805 -2.74523,1.081663 -5.4083,2.700725 -6.91441,5.322725 -2.40978,4.278738 -2.75208,9.577513 -1.33498,14.239621 0.73938,2.73838 2.86848,4.72372 4.79219,6.6748 -1.54719,4.53204 -3.01906,9.09145 -4.48411,13.65772 -0.56138,1.6841 -0.87969,3.48801 -0.46212,5.25427 1.0543,0.18484 2.11199,0.36968 3.16628,0.54768 0.51345,-0.89683 1.02004,-1.79707 1.47187,-2.72127 1.90319,-5.20293 3.12862,-10.65576 5.47678,-15.69437 3.86112,-0.0957 7.59217,-1.17751 11.05622,-2.84109 3.88169,-1.67725 6.37019,-5.445948 7.61615,-9.361848 0.2533,-3.162838 0.54425,-6.633738 -1.1467,-9.481663 -1.30072,-2.238637 -3.5599,-3.614675 -5.68216,-4.963325 0.42446,-1.129575 0.84549,-2.259175 1.28363,-3.388762 0.79413,-2.046938 1.60538,-4.087038 2.24206,-6.195588 -0.0618,-0.9516 -0.1335,-1.896337 -0.2225,-2.841075 z m -9.15648,14.650363 c -2.37555,6.154512 -5.84302,11.836675 -8.36918,17.936438 -3.01224,-2.533026 -4.24793,-6.637176 -4.22739,-10.457213 0.15745,-2.847925 1.71832,-6.575563 5.03177,-6.657713 2.5604,0.09575 5.05918,-0.321762 7.5648,-0.821512 z m 2.97799,3.251837 c 2.26601,0.862588 4.25478,2.669925 4.87776,5.066013 1.6088,4.716875 -1.45477,10.491438 -6.31541,11.689488 -1.88264,0.45182 -3.84059,0.20537 -5.75061,0.13692 1.84842,-5.839608 5.0797,-11.141808 7.18826,-16.892421 z"
         style="fill:#000080;display:inline" /><path
         style="fill:#000080;display:inline"
         id="path136-3"
         d="m 618.59575,72.410487 c 1.07481,-1.10905 2.60831,-1.519813 4.04597,-1.930563 -1.81419,6.866488 -5.86701,12.843025 -8.81761,19.244013 -0.41076,0.889962 -0.79413,1.786787 -1.17066,2.6973 5.73692,2.320775 11.62446,-0.239613 17.46406,-0.376525 0.0549,3.087537 -1.81418,5.962837 -4.8401,6.811725 -5.04546,1.163823 -10.11149,-0.5956 -15.09536,-1.293875 -2.38923,4.662098 -4.64155,9.420038 -6.33252,14.390208 -1.04743,1.95795 -2.15648,3.88167 -3.31343,5.77799 -0.46554,-0.23275 -1.38289,-0.69144 -1.84843,-0.91734 -0.26699,-2.32078 -0.47921,-4.77165 0.51345,-6.96236 1.92373,-4.46357 4.03913,-8.85184 5.94231,-13.329086 0.42445,-0.985825 0.67775,-2.033262 0.71198,-3.101225 -2.5467,-3.073837 -4.69634,-6.572125 -5.6,-10.494862 -0.46554,-1.533513 1.4308,-2.13595 2.25916,-3.046463 2.59463,2.745238 4.01859,6.325675 6.45575,9.200988 2.96431,-5.6753 4.96333,-12.069438 9.62543,-16.669925 z" /><path
         style="fill:#000080;display:inline"
         id="path170-7"
         d="m 513.22948,90.607062 c 2.32079,-1.218575 4.99072,-1.245975 7.42104,-0.308075 -0.59561,1.088512 -1.22542,2.163325 -1.79365,3.265525 -0.71882,0.27385 -1.4308,0.554525 -2.13594,0.8489 -1.1912,-1.245963 -2.37556,-2.498788 -3.49145,-3.80635 z" /><path
         style="fill:#000080;display:inline"
         id="path178-6"
         d="m 636.04611,95.666224 c 1.08167,-0.554525 2.2181,-0.965275 3.36824,-1.36235 -0.88315,3.388763 -2.50564,6.537896 -4.58682,9.337896 -1.42397,1.27335 -2.92322,2.45772 -4.42933,3.6352 -0.59562,-0.67775 -1.19122,-1.3418 -1.7868,-2.00586 1.08166,-1.81417 2.26602,-3.56675 3.58728,-5.21662 1.23912,-1.499266 2.52617,-2.957453 3.84743,-4.388266 z" /><path
         style="fill:#000080;display:inline"
         id="path180-5"
         d="m 570.34538,96.179674 c 2.08117,-2.012725 4.11443,1.232275 4.02544,3.2313 -0.88999,0.629826 -1.79365,1.245946 -2.71786,1.834716 -0.6846,-1.615653 -1.25281,-3.292903 -1.30758,-5.066016 z" /><path
         style="fill:#000080;display:inline"
         id="path182-2"
         d="m 583.3048,95.618299 c 1.17751,0.150613 2.49192,0.294388 3.22446,1.376038 0.41759,1.5335 -0.54769,2.916387 -1.10906,4.265033 -3.36822,0.47239 -3.34083,-3.566733 -2.1154,-5.641071 z" /><path
         style="fill:#000080;display:inline"
         id="path184-5"
         d="m 512.0999,99.109749 c 0.49976,0.0685 1.49927,0.205388 1.99902,0.273838 -0.0479,1.916873 -0.19854,3.833733 -0.28069,5.757453 1.35552,1.0406 3.17654,1.93741 3.41615,3.84058 -1.70465,2.77948 -7.98923,0.93105 -7.19511,-2.71098 0.12325,-2.52618 0.91736,-4.92912 2.06063,-7.160891 z" /><path
         style="fill:#000080;display:inline"
         id="path188-7"
         d="m 567.65492,113.04129 c -0.6846,-4.02543 -1.17751,-8.578 1.12273,-12.19952 1.0543,0.37654 2.10172,0.77359 3.14915,1.17752 0.36967,3.53935 -0.0617,7.09926 0.0136,10.65231 1.15698,0.0411 2.32764,0.0821 3.49829,0.13692 0.11637,0.41077 0.34915,1.23228 0.47237,1.64304 -1.4445,1.4308 -3.37506,2.41663 -5.42201,2.53985 -1.43079,-0.87627 -2.13594,-2.49877 -2.83422,-3.95012 z" /><path
         style="fill:#000080;display:inline"
         id="path190-8"
         d="m 580.45003,101.55376 c 1.01319,0.10963 2.03325,0.17115 3.03275,0.41075 1.16383,0.89683 1.28022,2.48508 1.6978,3.79268 0.82152,3.73788 2.41663,7.53056 1.45137,11.40537 -0.4587,3.16969 -2.23179,5.87384 -3.64892,8.67384 -1.45135,0.69829 -2.84791,1.62934 -4.45672,1.91686 -2.48509,-0.45867 -3.36136,-3.08752 -4.41564,-5.02492 2.54669,-0.66407 5.9286,0.26698 7.46894,-2.48509 3.46405,-5.87385 0.53399,-12.7335 -1.12958,-18.68949 z" /><path
         style="fill:#000080;display:inline"
         id="path196-2"
         d="m 634.54001,105.06574 c 0.56821,-0.10963 1.70465,-0.32862 2.27285,-0.43815 1.49927,2.06748 2.66309,4.50465 2.3071,7.13351 -0.39021,3.77896 -1.17751,7.95501 -3.85428,10.80977 -2.30025,0.79413 -4.7785,0.85574 -7.17458,1.08852 -0.33545,-0.79414 -0.66405,-1.58828 -0.97898,-2.3824 -0.24644,-1.58143 -0.0136,-3.16284 0.26015,-4.71687 2.27971,0.47235 5.33301,3.2792 7.01028,0.33545 1.49926,-3.73791 0.0136,-7.9208 0.15746,-11.82983 z" /></g></g><g
     inkscape:groupmode="layer"
     id="layer3"
     inkscape:label="labels"
     style="display:none"><g
       style="display:inline"
       transform="matrix(2.0403905,0,0,2.0403905,423.66836,-1081.4787)"
       id="g3887"><g
         style="font-style:normal;font-variant:normal;font-weight:normal;font-stretch:normal;letter-spacing:normal;word-spacing:normal;text-anchor:start;fill:none;stroke:#000000;stroke-linecap:butt;stroke-linejoin:miter;stroke-miterlimit:10.43299961;stroke-opacity:1;stroke-dasharray:none;stroke-dashoffset:0"
         id="g3889"
         transform="matrix(0.23820273,0,0,-0.23820273,-41.685477,640.59938)"
         xml:space="preserve"
         stroke-miterlimit="10.433"
         font-style="normal"
         font-variant="normal"
         font-weight="normal"
         font-stretch="normal"
         font-size-adjust="none"
         letter-spacing="normal"
         word-spacing="normal"><path
           style="fill:#000000;stroke-width:0"
           d="m 491.87,438.83 0.01,0.04 0.01,0.03 0.01,0.04 0.01,0.05 0.01,0.04 0.01,0.04 0.02,0.05 0.01,0.04 0.01,0.05 0.01,0.05 0.01,0.05 0.01,0.05 0.01,0.05 0,0.03 0,0.02 0,0.03 0,0.03 0.01,0.03 0,0.02 c 0,0.45 -0.25,0.45 -1.25,0.45 h -21.02 c -1.2,0 -1.25,-0.05 -1.55,-0.99 l -2.74,-8.97 c -0.1,-0.25 -0.14,-0.6 -0.14,-0.7 0,-0.05 0,-0.55 0.59,-0.55 0.45,0 0.55,0.35 0.65,0.5 1.89,5.88 4.48,9.17 12.25,9.17 h 8.12 l -27.84,-31.14 c 0,-0.04 -0.2,-0.74 -0.2,-0.89 0,-0.45 0.35,-0.45 1.24,-0.45 h 21.67 c 1.2,0 1.25,0.05 1.55,1 l 3.53,11 c 0.05,0.2 0.2,0.55 0.2,0.75 0,0.25 -0.2,0.55 -0.64,0.55 -0.45,0 -0.5,-0.2 -0.85,-1.25 -2.19,-6.77 -4.58,-10.35 -13.05,-10.35 h -8.52 z"
           id="path3891" /><path
           style="fill:#000000;stroke-width:0"
           d="m 510.99,435.12 0,0.71 -0.02,0.68 -0.03,0.66 -0.04,0.64 -0.06,0.62 -0.08,0.59 -0.09,0.58 -0.11,0.56 -0.12,0.55 -0.15,0.53 -0.17,0.51 -0.19,0.5 -0.21,0.49 -0.24,0.48 -0.26,0.47 -0.14,0.24 -0.15,0.23 c -1.07,1.6 -3.24,2.99 -6.03,2.99 v -0.97 c 1.89,0 3.7,-1.15 4.33,-3.18 0.56,-1.88 0.59,-4.39 0.59,-7.42 0,-2.58 0,-5.17 -0.45,-7.36 -0.7,-3.17 -3.07,-3.94 -4.47,-3.94 h 0 c -1.6,0 -3.73,0.94 -4.43,3.8 -0.49,2.06 -0.49,4.92 -0.49,7.5 0,2.54 0,5.19 0.53,7.11 0.73,2.76 2.96,3.49 4.39,3.49 v 0.97 c -8.09,0 -8.09,-9.52 -8.09,-12.03 0,-2.51 0,-11.82 8.09,-11.82 8.09,0 8.09,9.31 8.09,11.82 z"
           id="path3893" /></g></g><g
       style="display:inline"
       id="g4255"
       transform="matrix(2.0403905,0,0,2.0403905,508.39509,-1081.746)"><g
         id="g4257"
         transform="matrix(0.23820273,0,0,-0.23820273,-41.685477,640.59938)"
         xml:space="preserve"
         stroke-miterlimit="10.433"
         font-style="normal"
         font-variant="normal"
         font-weight="normal"
         font-stretch="normal"
         font-size-adjust="none"
         letter-spacing="normal"
         word-spacing="normal"
         style="font-style:normal;font-variant:normal;font-weight:normal;font-stretch:normal;letter-spacing:normal;word-spacing:normal;text-anchor:start;fill:none;stroke:#000000;stroke-linecap:butt;stroke-linejoin:miter;stroke-miterlimit:10.43299961;stroke-opacity:1;stroke-dasharray:none;stroke-dashoffset:0"><path
           d="m 465.32,417.51 0.14,0 0.15,0 0.17,0 0.18,0 0.18,0.01 0.2,0 0.21,0.01 0.21,0.01 0.23,0.01 0.23,0.01 0.24,0.02 0.24,0.01 0.25,0.02 0.26,0.03 0.52,0.05 0.54,0.06 0.54,0.08 0.55,0.09 0.54,0.11 0.53,0.13 0.27,0.07 0.25,0.07 0.26,0.08 0.25,0.09 0.24,0.09 0.24,0.09 c 3.48,1.5 3.73,4.44 3.73,5.14 0,2.19 -1.89,4.23 -5.33,4.23 v -1.1 c 2.34,0 3.69,-1.44 3.69,-3.13 0,-5.19 -7.97,-5.19 -10.01,-5.19 h -2.05 c 1.95,7.58 7.08,8.32 8.37,8.32 v 1.1 c -5.53,0 -13.05,-4.84 -13.05,-13.55 0,-5.08 2.94,-9.02 7.82,-9.02 7.12,0 11.31,5.28 11.31,5.88 0,0.3 -0.3,0.65 -0.6,0.65 -0.25,0 -0.35,-0.1 -0.64,-0.5 -3.94,-4.93 -9.37,-4.93 -9.97,-4.93 -3.88,0 -4.33,4.18 -4.33,5.78 0,0.6 0.05,2.14 0.8,5.18 z"
           id="path4259"
           style="fill:#000000;stroke-width:0" /><path
           d="m 504.94,431.88 0.05,0 0.06,0 0.05,0 0.06,0 0.12,0 0.06,0.01 0.05,0 0.06,0.01 0.06,0 0.06,0.01 0.06,0.01 0.05,0.02 0.06,0.01 0.06,0.02 0.05,0.01 0.05,0.02 0.05,0.03 0.05,0.02 0.04,0.03 0.04,0.04 0.05,0.03 0.03,0.04 0.02,0.02 0.02,0.02 0.01,0.03 0.02,0.02 0.01,0.02 0.02,0.03 0.01,0.03 0.01,0.02 0.01,0.03 0.01,0.03 0.01,0.03 0,0.03 0.01,0.04 0.01,0.03 0,0.04 0,0.03 0.01,0.04 0,0.04 c 0,0.87 -0.8,0.87 -1.4,0.87 h -20.78 c -0.56,0 -1.39,0 -1.39,-0.84 0,-0.87 0.8,-0.87 1.39,-0.87 z"
           id="path4261"
           style="fill:#000000;stroke-width:0" /></g></g><g
       style="display:inline"
       id="g4451"
       transform="matrix(2.0403905,0,0,2.0403905,586.60439,-1081.746)"><g
         word-spacing="normal"
         letter-spacing="normal"
         font-size-adjust="none"
         font-stretch="normal"
         font-weight="normal"
         font-variant="normal"
         font-style="normal"
         stroke-miterlimit="10.433"
         xml:space="preserve"
         transform="matrix(0.23820273,0,0,-0.23820273,-41.685477,640.59938)"
         id="g4453"
         style="font-style:normal;font-variant:normal;font-weight:normal;font-stretch:normal;letter-spacing:normal;word-spacing:normal;text-anchor:start;fill:none;stroke:#000000;stroke-linecap:butt;stroke-linejoin:miter;stroke-miterlimit:10.43299961;stroke-opacity:1;stroke-dasharray:none;stroke-dashoffset:0"><path
           id="path4455"
           d="m 465.32,417.51 0.14,0 0.15,0 0.17,0 0.18,0 0.18,0.01 0.2,0 0.21,0.01 0.21,0.01 0.23,0.01 0.23,0.01 0.24,0.02 0.24,0.01 0.25,0.02 0.26,0.03 0.52,0.05 0.54,0.06 0.54,0.08 0.55,0.09 0.54,0.11 0.53,0.13 0.27,0.07 0.25,0.07 0.26,0.08 0.25,0.09 0.24,0.09 0.24,0.09 c 3.48,1.5 3.73,4.44 3.73,5.14 0,2.19 -1.89,4.23 -5.33,4.23 v -1.1 c 2.34,0 3.69,-1.44 3.69,-3.13 0,-5.19 -7.97,-5.19 -10.01,-5.19 h -2.05 c 1.95,7.58 7.08,8.32 8.37,8.32 v 1.1 c -5.53,0 -13.05,-4.84 -13.05,-13.55 0,-5.08 2.94,-9.02 7.82,-9.02 7.12,0 11.31,5.28 11.31,5.88 0,0.3 -0.3,0.65 -0.6,0.65 -0.25,0 -0.35,-0.1 -0.64,-0.5 -3.94,-4.93 -9.37,-4.93 -9.97,-4.93 -3.88,0 -4.33,4.18 -4.33,5.78 0,0.6 0.05,2.14 0.8,5.18 z"
           style="fill:#000000;stroke-width:0" /><path
           id="path4457"
           d="m 504.94,431.88 0.05,0 0.06,0 0.05,0 0.06,0 0.12,0 0.06,0.01 0.05,0 0.06,0.01 0.06,0 0.06,0.01 0.06,0.01 0.05,0.02 0.06,0.01 0.06,0.02 0.05,0.01 0.05,0.02 0.05,0.03 0.05,0.02 0.04,0.03 0.04,0.04 0.05,0.03 0.03,0.04 0.02,0.02 0.02,0.02 0.01,0.03 0.02,0.02 0.01,0.02 0.02,0.03 0.01,0.03 0.01,0.02 0.01,0.03 0.01,0.03 0.01,0.03 0,0.03 0.01,0.04 0.01,0.03 0,0.04 0,0.03 0.01,0.04 0,0.04 c 0,0.87 -0.8,0.87 -1.4,0.87 h -20.78 c -0.56,0 -1.39,0 -1.39,-0.84 0,-0.87 0.8,-0.87 1.39,-0.87 z"
           style="fill:#000000;stroke-width:0" /></g></g></g></svg>