<?xml version="1.0" encoding="UTF-8" standalone="no"?>
<!-- Created with Inkscape (http://www.inkscape.org/) -->

<svg
   xmlns:dc="http://purl.org/dc/elements/1.1/"
   xmlns:cc="http://creativecommons.org/ns#"
   xmlns:rdf="http://www.w3.org/1999/02/22-rdf-syntax-ns#"
   xmlns:svg="http://www.w3.org/2000/svg"
   xmlns="http://www.w3.org/2000/svg"
   xmlns:sodipodi="http://sodipodi.sourceforge.net/DTD/sodipodi-0.dtd"
   xmlns:inkscape="http://www.inkscape.org/namespaces/inkscape"
   id="svg4825"
   version="1.1"
   inkscape:version="0.47 r22583"
   width="658.69617"
   height="287.15903"
   xml:space="preserve"
   sodipodi:docname="golden_channel.pdf"><sodipodi:namedview
     pagecolor="#ffffff"
     bordercolor="#666666"
     borderopacity="1"
     objecttolerance="10"
     gridtolerance="10"
     guidetolerance="10"
     inkscape:pageopacity="0"
     inkscape:pageshadow="2"
     inkscape:window-width="1680"
     inkscape:window-height="975"
     id="namedview4827"
     showgrid="false"
     inkscape:zoom="2.0312855"
     inkscape:cx="329.34808"
     inkscape:cy="143.57951"
     inkscape:window-x="0"
     inkscape:window-y="24"
     inkscape:window-maximized="1"
     inkscape:current-layer="g4835" /><metadata
     id="metadata4831"><rdf:RDF><cc:Work
         rdf:about=""><dc:format>image/svg+xml</dc:format><dc:type
           rdf:resource="http://purl.org/dc/dcmitype/StillImage" /><dc:title></dc:title></cc:Work></rdf:RDF></metadata><defs
     id="defs4829"><inkscape:perspective
       id="perspective4833"
       inkscape:persp3d-origin="0.5 : 0.33333333 : 1"
       inkscape:vp_z="1 : 0.5 : 1"
       inkscape:vp_y="0 : 1000 : 0"
       inkscape:vp_x="0 : 0.5 : 1"
       sodipodi:type="inkscape:persp3d" /><inkscape:perspective
       sodipodi:type="inkscape:persp3d"
       inkscape:vp_x="0 : 0.5 : 1"
       inkscape:vp_y="0 : 1000 : 0"
       inkscape:vp_z="1 : 0.5 : 1"
       inkscape:persp3d-origin="0.5 : 0.33333333 : 1"
       id="perspective5067" /><inkscape:perspective
       sodipodi:type="inkscape:persp3d"
       inkscape:vp_x="0 : 0.5 : 1"
       inkscape:vp_y="0 : 1000 : 0"
       inkscape:vp_z="1 : 0.5 : 1"
       inkscape:persp3d-origin="0.5 : 0.33333333 : 1"
       id="perspective5640" /><inkscape:perspective
       sodipodi:type="inkscape:persp3d"
       inkscape:vp_x="0 : 0.5 : 1"
       inkscape:vp_y="0 : 1000 : 0"
       inkscape:vp_z="1 : 0.5 : 1"
       inkscape:persp3d-origin="0.5 : 0.33333333 : 1"
       id="perspective5152" /><inkscape:perspective
       sodipodi:type="inkscape:persp3d"
       inkscape:vp_x="0 : 0.5 : 1"
       inkscape:vp_y="0 : 1000 : 0"
       inkscape:vp_z="1 : 0.5 : 1"
       inkscape:persp3d-origin="0.5 : 0.33333333 : 1"
       id="perspective5210" /><inkscape:perspective
       sodipodi:type="inkscape:persp3d"
       inkscape:vp_x="0 : 0.5 : 1"
       inkscape:vp_y="0 : 1000 : 0"
       inkscape:vp_z="1 : 0.5 : 1"
       inkscape:persp3d-origin="0.5 : 0.33333333 : 1"
       id="perspective5241" /><inkscape:perspective
       id="perspective5658"
       inkscape:persp3d-origin="0.5 : 0.33333333 : 1"
       inkscape:vp_z="1 : 0.5 : 1"
       inkscape:vp_y="0 : 1000 : 0"
       inkscape:vp_x="0 : 0.5 : 1"
       sodipodi:type="inkscape:persp3d" /></defs><g
     transform="matrix(1.25,0,0,-1.25,-102.18408,955.3365)"
     inkscape:label="ink_ext_XXXXXX"
     inkscape:groupmode="layer"
     id="g4835"><path
       d="m 228.84282,647.04199 -56,0"
       style="fill:none;stroke:#000080;stroke-width:1;stroke-linecap:butt;stroke-linejoin:miter;stroke-miterlimit:10;stroke-opacity:1;stroke-dasharray:11.19999999999999929, 11.19999999999999929;stroke-dashoffset:0"
       id="path4843" /><path
       d="m 231.34282,647.04199 -5,2 1,-2 -1,-2 5,2 z"
       style="fill:none;stroke:#231f20;stroke-width:1;stroke-linecap:butt;stroke-linejoin:miter;stroke-miterlimit:10;stroke-opacity:1;stroke-dasharray:none"
       id="path4845" /><path
       d="m 231.34282,647.04199 -5,2 1,-2 -1,-2"
       style="fill:#231f20;fill-opacity:1;fill-rule:nonzero;stroke:none"
       id="path4847" /><path
       d="m 284.84282,647.04199 -56,0"
       style="fill:none;stroke:#000080;stroke-width:1;stroke-linecap:butt;stroke-linejoin:miter;stroke-miterlimit:10;stroke-opacity:1;stroke-dasharray:11.19999999999999929, 11.19999999999999929;stroke-dashoffset:0"
       id="path4849" /><path
       d="m 342.44282,704.64199 c 9.787,-4.355 10.755,-3.387 6.4,6.4 m -12.8,-12.8 c -4.355,9.787 -3.387,10.755 6.4,6.4 m -19.2,-19.2 c -4.355,9.787 -3.387,10.755 6.4,6.4 m -12.8,-12.8 c 9.787,-4.355 10.755,-3.387 6.4,6.4 m -12.8,-12.8 c -4.355,9.787 -3.387,10.755 6.4,6.4 m -12.8,-12.8 c 9.787,-4.355 10.755,-3.387 6.4,6.4 m -12.8,-12.8 c -4.355,9.787 -3.387,10.755 6.4,6.4 m -12.8,-12.8 c 9.787,-4.355 10.755,-3.387 6.4,6.4 m -12.8,-12.8 c -4.355,9.787 -3.387,10.755 6.4,6.4 m 38.4,38.4 c 9.787,-4.355 10.755,-3.387 6.4,6.4"
       style="fill:none;stroke:#000080;stroke-width:1;stroke-linecap:butt;stroke-linejoin:miter;stroke-miterlimit:10;stroke-opacity:1;stroke-dasharray:none"
       id="path4869" /><path
       d="m 342.44282,589.44199 c -4.355,-9.787 -3.387,-10.755 6.4,-6.4 m -12.8,12.8 c 9.787,4.355 10.755,3.387 6.4,-6.4 m -12.8,12.8 c -4.355,-9.787 -3.387,-10.755 6.4,-6.4 m -12.8,12.8 c 9.787,4.355 10.755,3.387 6.4,-6.4 m -12.8,12.8 c -4.355,-9.787 -3.387,-10.755 6.4,-6.4 m -12.8,12.8 c 9.787,4.355 10.755,3.387 6.4,-6.4 m -12.8,12.8 c -4.355,-9.787 -3.387,-10.755 6.4,-6.4 m -12.8,12.8 c 9.787,4.355 10.755,3.387 6.4,-6.4 m -12.8,12.8 c -4.355,-9.787 -3.387,-10.755 6.4,-6.4 m -12.8,12.8 c 9.787,4.355 10.755,3.387 6.4,-6.4"
       style="fill:none;stroke:#000080;stroke-width:1;stroke-linecap:butt;stroke-linejoin:miter;stroke-miterlimit:10;stroke-opacity:1;stroke-dasharray:none"
       id="path4889" /><path
       d="m 380.84282,735.04199 -32,-24"
       style="fill:none;stroke:#800000;stroke-width:1;stroke-linecap:butt;stroke-linejoin:miter;stroke-miterlimit:10;stroke-opacity:1;stroke-dasharray:none"
       id="path4891" /><path
       d="m 382.84282,736.54199 -5.2,-1.4 2,-1 0.4,-2.2 2.8,4.6 z"
       style="fill:none;stroke:#231f20;stroke-width:1;stroke-linecap:butt;stroke-linejoin:miter;stroke-miterlimit:10;stroke-opacity:1;stroke-dasharray:none"
       id="path4893" /><path
       d="m 382.84282,736.54199 -5.2,-1.4 2,-1 0.4,-2.2"
       style="fill:#231f20;fill-opacity:1;fill-rule:nonzero;stroke:none"
       id="path4895" /><path
       d="m 412.84282,759.04199 -32,-24"
       style="fill:none;stroke:#800000;stroke-width:1;stroke-linecap:butt;stroke-linejoin:miter;stroke-miterlimit:10;stroke-opacity:1;stroke-dasharray:none"
       id="path4897" /><path
       d="m 380.84282,687.04199 -32,24"
       style="fill:none;stroke:#800000;stroke-width:1;stroke-linecap:butt;stroke-linejoin:miter;stroke-miterlimit:10;stroke-opacity:1;stroke-dasharray:none"
       id="path4899" /><g
       id="g5539"
       transform="matrix(-0.99554494,-0.09428822,0.09428822,-0.99554494,693.93624,1408.0721)"><path
         id="path4901"
         style="fill:none;stroke:#231f20;stroke-width:1;stroke-linecap:butt;stroke-linejoin:miter;stroke-miterlimit:10;stroke-opacity:1;stroke-dasharray:none"
         d="m 382.84282,685.54199 -2.8,4.6 -0.4,-2.2 -2,-1 5.2,-1.4 z" /><path
         id="path4903"
         style="fill:#231f20;fill-opacity:1;fill-rule:nonzero;stroke:none"
         d="m 382.84282,685.54199 -2.8,4.6 -0.4,-2.2 -2,-1" /></g><path
       d="m 412.84282,663.04199 -32,24"
       style="fill:none;stroke:#800000;stroke-width:1;stroke-linecap:butt;stroke-linejoin:miter;stroke-miterlimit:10;stroke-opacity:1;stroke-dasharray:none"
       id="path4905" /><path
       d="m 380.84282,607.04199 -32,-24"
       style="fill:none;stroke:#231f20;stroke-width:1;stroke-linecap:butt;stroke-linejoin:miter;stroke-miterlimit:10;stroke-opacity:1;stroke-dasharray:none"
       id="path4907" /><path
       d="m 382.84282,608.54199 -5.2,-1.4 2,-1 0.4,-2.2 2.8,4.6 z"
       style="fill:none;stroke:#231f20;stroke-width:1;stroke-linecap:butt;stroke-linejoin:miter;stroke-miterlimit:10;stroke-opacity:1;stroke-dasharray:none"
       id="path4909" /><path
       d="m 382.84282,608.54199 -5.2,-1.4 2,-1 0.4,-2.2"
       style="fill:#231f20;fill-opacity:1;fill-rule:nonzero;stroke:none"
       id="path4911" /><path
       d="m 412.84282,631.04199 -32,-24"
       style="fill:none;stroke:#231f20;stroke-width:1;stroke-linecap:butt;stroke-linejoin:miter;stroke-miterlimit:10;stroke-opacity:1;stroke-dasharray:none"
       id="path4913" /><path
       d="m 380.84282,559.04199 -32,24"
       style="fill:none;stroke:#231f20;stroke-width:1;stroke-linecap:butt;stroke-linejoin:miter;stroke-miterlimit:10;stroke-opacity:1;stroke-dasharray:none"
       id="path4915" /><g
       id="g5543"
       transform="matrix(-0.99536018,-0.09621911,0.09621911,-0.99536018,704.85389,1153.2731)"><path
         id="path4917"
         style="fill:none;stroke:#231f20;stroke-width:1;stroke-linecap:butt;stroke-linejoin:miter;stroke-miterlimit:10;stroke-opacity:1;stroke-dasharray:none"
         d="m 382.84282,557.54199 -2.8,4.6 -0.4,-2.2 -2,-1 5.2,-1.4 z" /><path
         id="path4919"
         style="fill:#231f20;fill-opacity:1;fill-rule:nonzero;stroke:none"
         d="m 382.84282,557.54199 -2.8,4.6 -0.4,-2.2 -2,-1" /></g><path
       d="m 412.84282,535.04199 -32,24"
       style="fill:none;stroke:#231f20;stroke-width:1;stroke-linecap:butt;stroke-linejoin:miter;stroke-miterlimit:10;stroke-opacity:1;stroke-dasharray:none"
       id="path4921" /><g
       style="fill:#000080"
       id="g5136"><path
         d="m 84.485481,676.38473 c -0.0821,0.90913 1.35276,0.942 1.54445,0.11501 0.56411,-3.09437 0.69555,-6.25447 0.99129,-9.38718 0.64079,-11.33145 0.0821,-22.72314 -1.2268,-33.98886 -0.37789,-2.43169 -0.14787,-5.21389 -1.90591,-7.18005 -0.59696,-0.18621 -1.21037,-0.33408 -1.82377,-0.4491 -0.84889,4.72646 0.26289,9.4803 0.35599,14.21771 0.18074,5.0934 0.62983,10.17037 0.58602,15.26924 0.56958,7.13075 0.88724,14.27794 1.47873,21.40323 z"
         id="path206"
         style="fill:#000080;display:inline" /><path
         d="m 150.65584,673.65182 c -0.16429,3.7954 4.84695,4.09115 7.50319,3.12176 1.67041,-0.52577 3.32987,-1.08441 4.99481,-1.62113 l 0.47649,-0.15334 c -0.0329,-2.13595 -1.01869,-4.15141 -2.48099,-5.67942 -1.85663,-1.74709 -3.9597,-3.22034 -5.77799,-5.01672 1.82924,-0.83794 3.74611,-1.50064 5.49867,-2.49741 1.09536,-0.88725 1.13918,-2.32764 0.78866,-3.58181 -3.65849,0.15883 -7.20195,1.65946 -10.13203,3.78445 -0.60792,2.44264 0.92009,4.82504 2.67814,6.38592 1.97164,1.56087 4.19521,2.80957 5.90944,4.68264 -1.56088,0.45457 -3.182,0.83246 -4.8086,0.50934 -1.54992,-0.21907 -3.12176,-0.2848 -4.64979,0.0657 z"
         id="path208"
         style="fill:#000080;display:inline" /><path
         d="m 145.79246,670.71078 c 0.45458,0.0165 1.37468,0.0494 1.82925,0.0603 1.64303,-5.70679 -0.0274,-11.60527 0.0766,-17.40518 -0.006,-7.18552 0.5203,-14.36009 1.00773,-21.52371 0.10405,-3.87755 0.15335,-7.75512 0.0165,-11.63267 -1.49516,-0.27383 -4.28283,-1.19393 -4.83598,0.75032 -0.0877,4.04734 -0.0603,8.10015 0.0712,12.14749 0.41076,5.83275 0.24097,11.68742 0.72841,17.50923 0.24646,5.97517 0.81057,11.92841 0.76676,17.90906 0.0439,0.74483 0.19715,1.46229 0.33954,2.18522 z"
         id="path220"
         style="fill:#000080;display:inline" /><path
         style="fill:#000080;display:inline"
         d="m 92.372031,669.81534 c -0.62872,-0.0153 -1.26377,-0.10953 -1.88949,-0.30122 0.59149,-1.06798 1.37467,-2.04558 1.83473,-3.19023 0.10953,-2.86434 -0.58054,-5.70132 -0.43815,-8.57115 0.17526,-4.02542 0.55041,-8.03442 0.83521,-12.04889 0.27384,-1.75805 -1.59374,-2.62338 -2.30025,-3.99805 -0.24645,-0.92557 -0.14513,-1.90866 -0.15061,-2.86161 2.08665,0.0767 4.463581,-0.62436 6.298291,0.6846 1.27061,0.77769 2.533,1.54718 3.820048,2.28655 4.31022,2.46455 9.27217,5.38913 10.54279,10.57017 0.20812,2.34953 0.47374,4.92635 -0.53399,7.13349 -2.62337,4.64431 -7.51687,7.50867 -12.445958,9.1736 -1.79913,0.5463 -3.686481,1.16869 -5.572621,1.12274 z m 2.06748,-3.24499 c 4.786701,-1.98259 9.258479,-5.30151 11.788749,-9.91296 1.32539,-2.31119 1.30895,-5.57535 -0.73936,-7.4758 -1.87306,-1.80185 -4.38963,-2.78219 -6.531058,-4.16233 -0.68459,-0.45458 -1.56909,-0.19169 -2.34131,-0.27384 0.0165,5.70679 0.11775,11.41906 -0.67091,17.08753 -0.58601,1.54992 -1.08987,3.13819 -1.506111,4.7374 z m 1.506111,-4.7374 c 0.24022,0.0949 0.4997,0.16428 0.75306,0.19169 -0.25731,-0.0254 -0.50866,-0.0951 -0.75306,-0.19169 z m 5.750618,-3.65575 c 0.31095,-0.37771 0.62433,-0.76073 0.91736,-1.15012 -0.29486,0.3921 -0.60444,0.76977 -0.91736,1.15012 z m 2.09486,-3.16284 c 0.063,-0.22181 0.0959,-0.45466 0.12323,-0.6846 -0.0271,0.22946 -0.0605,0.46317 -0.12323,0.6846 z m 0.0959,-2.08117 c -0.0712,-0.45924 -0.19935,-0.91381 -0.36967,-1.34182 0.16926,0.42902 0.30016,0.88137 0.36967,1.34182 z m -1.3418,-2.76577 c -0.0841,-0.0788 -0.17136,-0.15966 -0.26015,-0.23277 0.0913,0.0751 0.17376,0.1517 0.26015,0.23277 z m -1.41027,-0.99952 c -0.4087,-0.22488 -0.83196,-0.42299 -1.259658,-0.61613 0.428208,0.19314 0.850268,0.39125 1.259658,0.61613 z"
         id="path226" /><path
         style="fill:#000080;display:inline"
         d="m 140.80039,664.31118 c -0.95843,-0.33956 -1.86485,-0.89819 -2.34132,-1.83472 -0.58054,-1.67041 -1.50611,-3.17926 -2.51931,-4.61418 -1.36372,1.30347 -3.12177,2.24548 -5.06602,1.80733 -6.26543,-0.49838 -10.55373,-6.90072 -10.26895,-12.8704 -0.0821,-3.10535 1.48695,-5.90945 3.32714,-8.29731 -1.44587,-4.53478 -3.94327,-8.77106 -4.43618,-13.56871 -0.38338,-1.49517 1.2843,-2.23727 2.23178,-3.02592 0.36148,-0.16978 1.0844,-0.50113 1.45135,-0.6709 0.87627,1.36371 1.89496,2.72469 2.16332,4.36771 0.79414,3.31346 -0.0301,7.076 1.90318,10.04989 2.73291,2.82054 7.30327,1.08167 10.36479,3.29975 0.94749,0.71199 1.94973,1.67864 1.97164,2.94377 0.0165,4.11305 -1.55814,8.12206 -1.16381,12.24059 1.1063,2.32763 3.39012,4.17329 3.53251,6.90073 -0.1643,1.15559 -0.70102,2.20987 -1.15012,3.27237 z m -9.72127,-8.74915 c 0.48744,-0.7284 1.01047,-1.45134 1.41026,-2.24546 -0.68459,-1.84568 -2.2126,-3.20118 -3.23129,-4.86064 -1.30347,-1.72518 -2.00724,-3.82553 -3.35452,-5.51786 -1.50064,3.22035 -1.82103,7.0048 -1.0269,10.43326 1.92783,1.05154 4.09937,1.58827 6.20245,2.1907 z m 4.34035,-6.46259 c 0.14238,-2.24 0.56136,-4.45535 0.69828,-6.69536 -1.39657,-1.72518 -3.69956,-2.19343 -5.7643,-2.61515 1.32538,3.28606 3.17653,6.32568 5.06602,9.31051 z"
         id="path240" /><path
         d="m 103.97731,639.3015 c 0.86533,1.27061 2.96294,0.48195 3.0177,-0.96391 0.18073,-1.77995 0.13144,-3.57633 0.26288,-5.36724 1.183,0.91462 2.25096,2.01545 3.59277,2.70004 1.50611,0.35599 2.8315,-0.82698 3.7735,-1.8621 1.92235,-2.46454 2.80411,-5.80538 2.15237,-8.88879 -1.01869,0.29026 -2.03188,0.58601 -3.05056,0.88175 -0.38338,2.15238 -0.78866,4.31023 -1.57731,6.35853 -1.99902,-1.17202 -3.37918,-3.06151 -4.97292,-4.69358 -1.23775,0.92009 -2.32762,2.00997 -3.37369,3.1327 -0.64625,-1.01319 -1.27061,-2.03735 -1.85115,-3.0889 -1.30894,-2.39882 -2.617888,-4.82503 -4.529288,-6.8131 -0.74483,0.46006 -1.46777,1.02416 -1.62112,1.93878 0.42719,3.99805 3.13271,7.13623 4.929088,10.58113 1.17751,1.97711 1.96617,4.17329 3.24773,6.08469 z"
         id="path260"
         style="fill:#000080;display:inline" /></g><g
       transform="matrix(1.6323124,0,0,-1.6323124,103.77789,1551.299)"
       id="g3715"
       style="display:inline"><g
         style="font-style:normal;font-variant:normal;font-weight:normal;font-stretch:normal;letter-spacing:normal;word-spacing:normal;text-anchor:start;fill:none;stroke:#000000;stroke-linecap:butt;stroke-linejoin:miter;stroke-miterlimit:10.43299961;stroke-opacity:1;stroke-dasharray:none;stroke-dashoffset:0"
         id="g3717"
         transform="matrix(0.23820273,0,0,-0.23820273,-41.685477,640.59938)"
         xml:space="preserve"
         stroke-miterlimit="10.433"
         font-style="normal"
         font-variant="normal"
         font-weight="normal"
         font-stretch="normal"
         font-size-adjust="none"
         letter-spacing="normal"
         word-spacing="normal"><path
           style="fill:#000000;stroke-width:0"
           d="m 494.01,436.19 0.04,0.16 0.04,0.16 0.04,0.15 0.04,0.14 0.04,0.14 0.04,0.12 0.04,0.13 0.05,0.11 0.05,0.11 0.05,0.1 0.06,0.1 0.07,0.09 0.07,0.08 0.08,0.08 0.09,0.08 0.09,0.06 0.11,0.07 0.11,0.05 0.13,0.06 0.14,0.05 0.15,0.04 0.16,0.04 0.09,0.01 0.09,0.02 0.09,0.02 0.1,0.01 0.1,0.01 0.1,0.02 0.11,0.01 0.11,0.01 0.12,0.01 0.12,0.01 0.13,0.01 0.13,0 0.13,0.01 0.14,0 0.14,0.01 0.15,0 0.15,0 0.16,0.01 0.16,0 0.17,0 c 1.3,0 1.7,0 1.7,0.99 0,0.55 -0.55,0.55 -0.7,0.55 h -12.8 c -0.4,0 -0.95,0 -0.95,-0.99 0,-0.55 0.45,-0.55 1.4,-0.55 0.09,0 1.04,0 1.89,-0.1 0.89,-0.1 1.34,-0.15 1.34,-0.8 0,-0.2 -0.05,-0.3 -0.2,-0.94 l -2.99,-12.16 h -15.19 l 2.94,11.71 c 0.45,1.79 0.6,2.29 4.18,2.29 1.3,0 1.7,0 1.7,0.99 0,0.55 -0.55,0.55 -0.7,0.55 h -12.8 c -0.4,0 -0.95,0 -0.95,-0.99 0,-0.55 0.45,-0.55 1.4,-0.55 0.1,0 1.04,0 1.89,-0.1 0.9,-0.1 1.35,-0.15 1.35,-0.8 0,-0.2 -0.06,-0.35 -0.2,-0.94 l -6.68,-26.75 c -0.5,-1.95 -0.6,-2.35 -4.53,-2.35 -0.9,0 -1.35,0 -1.35,-0.99 0,-0.55 0.6,-0.55 0.7,-0.55 1.4,0 4.93,0.15 6.32,0.15 1.05,0 2.15,-0.05 3.2,-0.05 1.09,0 2.19,-0.1 3.23,-0.1 0.4,0 1,0 1,1 0,0.54 -0.45,0.54 -1.4,0.54 -1.84,0 -3.23,0 -3.23,0.9 0,0.3 0.1,0.55 0.15,0.85 l 3.38,13.65 h 15.19 c -2.09,-8.27 -3.23,-13.01 -3.43,-13.75 -0.5,-1.6 -1.44,-1.65 -4.53,-1.65 -0.75,0 -1.2,0 -1.2,-0.99 0,-0.55 0.6,-0.55 0.7,-0.55 1.39,0 4.93,0.15 6.32,0.15 1.05,0 2.14,-0.05 3.19,-0.05 1.1,0 2.19,-0.1 3.24,-0.1 0.4,0 1,0 1,1 0,0.54 -0.45,0.54 -1.4,0.54 -1.84,0 -3.24,0 -3.24,0.9 0,0.3 0.1,0.55 0.15,0.85 z"
           id="path3719" /><path
           style="fill:#000000;stroke-width:0"
           d="m 518.99,435.12 0,0.71 -0.02,0.68 -0.03,0.66 -0.04,0.64 -0.06,0.62 -0.08,0.59 -0.09,0.58 -0.11,0.56 -0.12,0.55 -0.15,0.53 -0.17,0.51 -0.19,0.5 -0.21,0.49 -0.24,0.48 -0.26,0.47 -0.14,0.24 -0.15,0.23 c -1.08,1.6 -3.24,2.99 -6.03,2.99 v -0.97 c 1.88,0 3.7,-1.15 4.33,-3.18 0.55,-1.88 0.59,-4.39 0.59,-7.42 0,-2.58 0,-5.17 -0.45,-7.36 -0.7,-3.17 -3.07,-3.94 -4.47,-3.94 h 0 c -1.6,0 -3.73,0.94 -4.43,3.8 -0.49,2.06 -0.49,4.92 -0.49,7.5 0,2.54 0,5.19 0.53,7.11 0.73,2.76 2.96,3.49 4.39,3.49 v 0.97 c -8.09,0 -8.09,-9.52 -8.09,-12.03 0,-2.51 0,-11.82 8.09,-11.82 8.09,0 8.09,9.31 8.09,11.82 z"
           id="path3721" /></g></g><g
       id="g3887"
       transform="matrix(1.6323124,0,0,-1.6323124,178.98929,1577.2575)"
       style="display:inline"><g
         word-spacing="normal"
         letter-spacing="normal"
         font-size-adjust="none"
         font-stretch="normal"
         font-weight="normal"
         font-variant="normal"
         font-style="normal"
         stroke-miterlimit="10.433"
         xml:space="preserve"
         transform="matrix(0.23820273,0,0,-0.23820273,-41.685477,640.59938)"
         id="g3889"
         style="font-style:normal;font-variant:normal;font-weight:normal;font-stretch:normal;letter-spacing:normal;word-spacing:normal;text-anchor:start;fill:none;stroke:#000000;stroke-linecap:butt;stroke-linejoin:miter;stroke-miterlimit:10.43299961;stroke-opacity:1;stroke-dasharray:none;stroke-dashoffset:0"><path
           id="path3891"
           d="m 491.87,438.83 0.01,0.04 0.01,0.03 0.01,0.04 0.01,0.05 0.01,0.04 0.01,0.04 0.02,0.05 0.01,0.04 0.01,0.05 0.01,0.05 0.01,0.05 0.01,0.05 0.01,0.05 0,0.03 0,0.02 0,0.03 0,0.03 0.01,0.03 0,0.02 c 0,0.45 -0.25,0.45 -1.25,0.45 h -21.02 c -1.2,0 -1.25,-0.05 -1.55,-0.99 l -2.74,-8.97 c -0.1,-0.25 -0.14,-0.6 -0.14,-0.7 0,-0.05 0,-0.55 0.59,-0.55 0.45,0 0.55,0.35 0.65,0.5 1.89,5.88 4.48,9.17 12.25,9.17 h 8.12 l -27.84,-31.14 c 0,-0.04 -0.2,-0.74 -0.2,-0.89 0,-0.45 0.35,-0.45 1.24,-0.45 h 21.67 c 1.2,0 1.25,0.05 1.55,1 l 3.53,11 c 0.05,0.2 0.2,0.55 0.2,0.75 0,0.25 -0.2,0.55 -0.64,0.55 -0.45,0 -0.5,-0.2 -0.85,-1.25 -2.19,-6.77 -4.58,-10.35 -13.05,-10.35 h -8.52 z"
           style="fill:#000000;stroke-width:0" /><path
           id="path3893"
           d="m 510.99,435.12 0,0.71 -0.02,0.68 -0.03,0.66 -0.04,0.64 -0.06,0.62 -0.08,0.59 -0.09,0.58 -0.11,0.56 -0.12,0.55 -0.15,0.53 -0.17,0.51 -0.19,0.5 -0.21,0.49 -0.24,0.48 -0.26,0.47 -0.14,0.24 -0.15,0.23 c -1.07,1.6 -3.24,2.99 -6.03,2.99 v -0.97 c 1.89,0 3.7,-1.15 4.33,-3.18 0.56,-1.88 0.59,-4.39 0.59,-7.42 0,-2.58 0,-5.17 -0.45,-7.36 -0.7,-3.17 -3.07,-3.94 -4.47,-3.94 h 0 c -1.6,0 -3.73,0.94 -4.43,3.8 -0.49,2.06 -0.49,4.92 -0.49,7.5 0,2.54 0,5.19 0.53,7.11 0.73,2.76 2.96,3.49 4.39,3.49 v 0.97 c -8.09,0 -8.09,-9.52 -8.09,-12.03 0,-2.51 0,-11.82 8.09,-11.82 8.09,0 8.09,9.31 8.09,11.82 z"
           style="fill:#000000;stroke-width:0" /></g></g><g
       transform="matrix(1.6323124,0,0,-1.6323124,307.18994,1641.3385)"
       id="g4255"
       style="display:inline"><g
         style="font-style:normal;font-variant:normal;font-weight:normal;font-stretch:normal;letter-spacing:normal;word-spacing:normal;text-anchor:start;fill:none;stroke:#000000;stroke-linecap:butt;stroke-linejoin:miter;stroke-miterlimit:10.43299961;stroke-opacity:1;stroke-dasharray:none;stroke-dashoffset:0"
         word-spacing="normal"
         letter-spacing="normal"
         font-size-adjust="none"
         font-stretch="normal"
         font-weight="normal"
         font-variant="normal"
         font-style="normal"
         stroke-miterlimit="10.433"
         xml:space="preserve"
         transform="matrix(0.23820273,0,0,-0.23820273,-41.685477,640.59938)"
         id="g4257"><path
           style="fill:#000000;stroke-width:0"
           id="path4259"
           d="m 465.32,417.51 0.14,0 0.15,0 0.17,0 0.18,0 0.18,0.01 0.2,0 0.21,0.01 0.21,0.01 0.23,0.01 0.23,0.01 0.24,0.02 0.24,0.01 0.25,0.02 0.26,0.03 0.52,0.05 0.54,0.06 0.54,0.08 0.55,0.09 0.54,0.11 0.53,0.13 0.27,0.07 0.25,0.07 0.26,0.08 0.25,0.09 0.24,0.09 0.24,0.09 c 3.48,1.5 3.73,4.44 3.73,5.14 0,2.19 -1.89,4.23 -5.33,4.23 v -1.1 c 2.34,0 3.69,-1.44 3.69,-3.13 0,-5.19 -7.97,-5.19 -10.01,-5.19 h -2.05 c 1.95,7.58 7.08,8.32 8.37,8.32 v 1.1 c -5.53,0 -13.05,-4.84 -13.05,-13.55 0,-5.08 2.94,-9.02 7.82,-9.02 7.12,0 11.31,5.28 11.31,5.88 0,0.3 -0.3,0.65 -0.6,0.65 -0.25,0 -0.35,-0.1 -0.64,-0.5 -3.94,-4.93 -9.37,-4.93 -9.97,-4.93 -3.88,0 -4.33,4.18 -4.33,5.78 0,0.6 0.05,2.14 0.8,5.18 z" /><path
           style="fill:#000000;stroke-width:0"
           id="path4261"
           d="m 504.94,431.88 0.05,0 0.06,0 0.05,0 0.06,0 0.12,0 0.06,0.01 0.05,0 0.06,0.01 0.06,0 0.06,0.01 0.06,0.01 0.05,0.02 0.06,0.01 0.06,0.02 0.05,0.01 0.05,0.02 0.05,0.03 0.05,0.02 0.04,0.03 0.04,0.04 0.05,0.03 0.03,0.04 0.02,0.02 0.02,0.02 0.01,0.03 0.02,0.02 0.01,0.02 0.02,0.03 0.01,0.03 0.01,0.02 0.01,0.03 0.01,0.03 0.01,0.03 0,0.03 0.01,0.04 0.01,0.03 0,0.04 0,0.03 0.01,0.04 0,0.04 c 0,0.87 -0.8,0.87 -1.4,0.87 h -20.78 c -0.56,0 -1.39,0 -1.39,-0.84 0,-0.87 0.8,-0.87 1.39,-0.87 z" /></g></g><g
       style="display:inline"
       transform="matrix(1.6323124,0,0,-1.6323124,178.98929,1487.6575)"
       id="g5288"><g
         style="font-style:normal;font-variant:normal;font-weight:normal;font-stretch:normal;letter-spacing:normal;word-spacing:normal;text-anchor:start;fill:none;stroke:#000000;stroke-linecap:butt;stroke-linejoin:miter;stroke-miterlimit:10.43299961;stroke-opacity:1;stroke-dasharray:none;stroke-dashoffset:0"
         id="g5290"
         transform="matrix(0.23820273,0,0,-0.23820273,-41.685477,640.59938)"
         xml:space="preserve"
         stroke-miterlimit="10.433"
         font-style="normal"
         font-variant="normal"
         font-weight="normal"
         font-stretch="normal"
         font-size-adjust="none"
         letter-spacing="normal"
         word-spacing="normal"><path
           style="fill:#000000;stroke-width:0"
           d="m 491.87,438.83 0.01,0.04 0.01,0.03 0.01,0.04 0.01,0.05 0.01,0.04 0.01,0.04 0.02,0.05 0.01,0.04 0.01,0.05 0.01,0.05 0.01,0.05 0.01,0.05 0.01,0.05 0,0.03 0,0.02 0,0.03 0,0.03 0.01,0.03 0,0.02 c 0,0.45 -0.25,0.45 -1.25,0.45 h -21.02 c -1.2,0 -1.25,-0.05 -1.55,-0.99 l -2.74,-8.97 c -0.1,-0.25 -0.14,-0.6 -0.14,-0.7 0,-0.05 0,-0.55 0.59,-0.55 0.45,0 0.55,0.35 0.65,0.5 1.89,5.88 4.48,9.17 12.25,9.17 h 8.12 l -27.84,-31.14 c 0,-0.04 -0.2,-0.74 -0.2,-0.89 0,-0.45 0.35,-0.45 1.24,-0.45 h 21.67 c 1.2,0 1.25,0.05 1.55,1 l 3.53,11 c 0.05,0.2 0.2,0.55 0.2,0.75 0,0.25 -0.2,0.55 -0.64,0.55 -0.45,0 -0.5,-0.2 -0.85,-1.25 -2.19,-6.77 -4.58,-10.35 -13.05,-10.35 h -8.52 z"
           id="path5292" /><path
           style="fill:#000000;stroke-width:0"
           d="m 510.99,435.12 0,0.71 -0.02,0.68 -0.03,0.66 -0.04,0.64 -0.06,0.62 -0.08,0.59 -0.09,0.58 -0.11,0.56 -0.12,0.55 -0.15,0.53 -0.17,0.51 -0.19,0.5 -0.21,0.49 -0.24,0.48 -0.26,0.47 -0.14,0.24 -0.15,0.23 c -1.07,1.6 -3.24,2.99 -6.03,2.99 v -0.97 c 1.89,0 3.7,-1.15 4.33,-3.18 0.56,-1.88 0.59,-4.39 0.59,-7.42 0,-2.58 0,-5.17 -0.45,-7.36 -0.7,-3.17 -3.07,-3.94 -4.47,-3.94 h 0 c -1.6,0 -3.73,0.94 -4.43,3.8 -0.49,2.06 -0.49,4.92 -0.49,7.5 0,2.54 0,5.19 0.53,7.11 0.73,2.76 2.96,3.49 4.39,3.49 v 0.97 c -8.09,0 -8.09,-9.52 -8.09,-12.03 0,-2.51 0,-11.82 8.09,-11.82 8.09,0 8.09,9.31 8.09,11.82 z"
           id="path5294" /></g></g><g
       style="display:inline"
       id="g5304"
       transform="matrix(1.6323124,0,0,-1.6323124,307.18994,1514.1618)"><g
         word-spacing="normal"
         letter-spacing="normal"
         font-size-adjust="none"
         font-stretch="normal"
         font-weight="normal"
         font-variant="normal"
         font-style="normal"
         stroke-miterlimit="10.433"
         xml:space="preserve"
         transform="matrix(0.23820273,0,0,-0.23820273,-41.685477,640.59938)"
         id="g5306"
         style="font-style:normal;font-variant:normal;font-weight:normal;font-stretch:normal;letter-spacing:normal;word-spacing:normal;text-anchor:start;fill:none;stroke:#000000;stroke-linecap:butt;stroke-linejoin:miter;stroke-miterlimit:10.43299961;stroke-opacity:1;stroke-dasharray:none;stroke-dashoffset:0"><path
           id="path5308"
           d="m 465.32,417.51 0.14,0 0.15,0 0.17,0 0.18,0 0.18,0.01 0.2,0 0.21,0.01 0.21,0.01 0.23,0.01 0.23,0.01 0.24,0.02 0.24,0.01 0.25,0.02 0.26,0.03 0.52,0.05 0.54,0.06 0.54,0.08 0.55,0.09 0.54,0.11 0.53,0.13 0.27,0.07 0.25,0.07 0.26,0.08 0.25,0.09 0.24,0.09 0.24,0.09 c 3.48,1.5 3.73,4.44 3.73,5.14 0,2.19 -1.89,4.23 -5.33,4.23 v -1.1 c 2.34,0 3.69,-1.44 3.69,-3.13 0,-5.19 -7.97,-5.19 -10.01,-5.19 h -2.05 c 1.95,7.58 7.08,8.32 8.37,8.32 v 1.1 c -5.53,0 -13.05,-4.84 -13.05,-13.55 0,-5.08 2.94,-9.02 7.82,-9.02 7.12,0 11.31,5.28 11.31,5.88 0,0.3 -0.3,0.65 -0.6,0.65 -0.25,0 -0.35,-0.1 -0.64,-0.5 -3.94,-4.93 -9.37,-4.93 -9.97,-4.93 -3.88,0 -4.33,4.18 -4.33,5.78 0,0.6 0.05,2.14 0.8,5.18 z"
           style="fill:#000000;stroke-width:0" /><path
           id="path5310"
           d="m 504.94,431.88 0.05,0 0.06,0 0.05,0 0.06,0 0.12,0 0.06,0.01 0.05,0 0.06,0.01 0.06,0 0.06,0.01 0.06,0.01 0.05,0.02 0.06,0.01 0.06,0.02 0.05,0.01 0.05,0.02 0.05,0.03 0.05,0.02 0.04,0.03 0.04,0.04 0.05,0.03 0.03,0.04 0.02,0.02 0.02,0.02 0.01,0.03 0.02,0.02 0.01,0.02 0.02,0.03 0.01,0.03 0.01,0.02 0.01,0.03 0.01,0.03 0.01,0.03 0,0.03 0.01,0.04 0.01,0.03 0,0.04 0,0.03 0.01,0.04 0,0.04 c 0,0.87 -0.8,0.87 -1.4,0.87 h -20.78 c -0.56,0 -1.39,0 -1.39,-0.84 0,-0.87 0.8,-0.87 1.39,-0.87 z"
           style="fill:#000000;stroke-width:0" /></g></g><g
       id="g5405"
       transform="matrix(0.3648274,0,0,-0.3648274,303.99927,644.11053)"><g
         word-spacing="normal"
         letter-spacing="normal"
         font-size-adjust="none"
         font-stretch="normal"
         font-weight="normal"
         font-variant="normal"
         font-style="normal"
         stroke-miterlimit="10.433"
         xml:space="preserve"
         transform="matrix(1.0928571,0,0,-1.0928571,-191.25,742.5)"
         id="content"
         style="font-style:normal;font-variant:normal;font-weight:normal;font-stretch:normal;letter-spacing:normal;word-spacing:normal;text-anchor:start;fill:none;stroke:#000000;stroke-linecap:butt;stroke-linejoin:miter;stroke-miterlimit:10.43299961;stroke-opacity:1;stroke-dasharray:none;stroke-dashoffset:0"><path
           id="path5408"
           d="m 465.32,417.51 0.14,0 0.15,0 0.17,0 0.18,0 0.18,0.01 0.2,0 0.21,0.01 0.21,0.01 0.23,0.01 0.23,0.01 0.24,0.02 0.24,0.01 0.25,0.02 0.26,0.03 0.52,0.05 0.54,0.06 0.54,0.08 0.55,0.09 0.54,0.11 0.53,0.13 0.27,0.07 0.25,0.07 0.26,0.08 0.25,0.09 0.24,0.09 0.24,0.09 c 3.48,1.5 3.73,4.44 3.73,5.14 0,2.19 -1.89,4.23 -5.33,4.23 v -1.1 c 2.34,0 3.69,-1.44 3.69,-3.13 0,-5.19 -7.97,-5.19 -10.01,-5.19 h -2.05 c 1.95,7.58 7.08,8.32 8.37,8.32 v 1.1 c -5.53,0 -13.05,-4.84 -13.05,-13.55 0,-5.08 2.94,-9.02 7.82,-9.02 7.12,0 11.31,5.28 11.31,5.88 0,0.3 -0.3,0.65 -0.6,0.65 -0.25,0 -0.35,-0.1 -0.64,-0.5 -3.94,-4.93 -9.37,-4.93 -9.97,-4.93 -3.88,0 -4.33,4.18 -4.33,5.78 0,0.6 0.05,2.14 0.8,5.18 z"
           style="fill:#000000;stroke-width:0" /><path
           id="path5410"
           d="m 495.14,431.88 h 10.67 c 0.46,0 1.3,0 1.3,0.84 0,0.87 -0.81,0.87 -1.3,0.87 h -10.67 v 10.7 c 0,0.46 0,1.29 -0.83,1.29 -0.87,0 -0.87,-0.8 -0.87,-1.29 v -10.7 h -10.71 c -0.45,0 -1.29,0 -1.29,-0.84 0,-0.87 0.8,-0.87 1.29,-0.87 h 10.71 v -10.7 c 0,-0.46 0,-1.29 0.83,-1.29 0.87,0 0.87,0.8 0.87,1.29 z"
           style="fill:#000000;stroke-width:0" /></g></g><g
       transform="matrix(0.3648274,0,0,-0.3648274,303.99927,767.89476)"
       id="g5515"><g
         style="font-style:normal;font-variant:normal;font-weight:normal;font-stretch:normal;letter-spacing:normal;word-spacing:normal;text-anchor:start;fill:none;stroke:#000000;stroke-linecap:butt;stroke-linejoin:miter;stroke-miterlimit:10.43299961;stroke-opacity:1;stroke-dasharray:none;stroke-dashoffset:0"
         id="g5517"
         transform="matrix(1.0928571,0,0,-1.0928571,-191.25,742.5)"
         xml:space="preserve"
         stroke-miterlimit="10.433"
         font-style="normal"
         font-variant="normal"
         font-weight="normal"
         font-stretch="normal"
         font-size-adjust="none"
         letter-spacing="normal"
         word-spacing="normal"><path
           style="fill:#000000;stroke-width:0"
           d="m 465.32,417.51 0.14,0 0.15,0 0.17,0 0.18,0 0.18,0.01 0.2,0 0.21,0.01 0.21,0.01 0.23,0.01 0.23,0.01 0.24,0.02 0.24,0.01 0.25,0.02 0.26,0.03 0.52,0.05 0.54,0.06 0.54,0.08 0.55,0.09 0.54,0.11 0.53,0.13 0.27,0.07 0.25,0.07 0.26,0.08 0.25,0.09 0.24,0.09 0.24,0.09 c 3.48,1.5 3.73,4.44 3.73,5.14 0,2.19 -1.89,4.23 -5.33,4.23 v -1.1 c 2.34,0 3.69,-1.44 3.69,-3.13 0,-5.19 -7.97,-5.19 -10.01,-5.19 h -2.05 c 1.95,7.58 7.08,8.32 8.37,8.32 v 1.1 c -5.53,0 -13.05,-4.84 -13.05,-13.55 0,-5.08 2.94,-9.02 7.82,-9.02 7.12,0 11.31,5.28 11.31,5.88 0,0.3 -0.3,0.65 -0.6,0.65 -0.25,0 -0.35,-0.1 -0.64,-0.5 -3.94,-4.93 -9.37,-4.93 -9.97,-4.93 -3.88,0 -4.33,4.18 -4.33,5.78 0,0.6 0.05,2.14 0.8,5.18 z"
           id="path5519" /><path
           style="fill:#000000;stroke-width:0"
           d="m 495.14,431.88 h 10.67 c 0.46,0 1.3,0 1.3,0.84 0,0.87 -0.81,0.87 -1.3,0.87 h -10.67 v 10.7 c 0,0.46 0,1.29 -0.83,1.29 -0.87,0 -0.87,-0.8 -0.87,-1.29 v -10.7 h -10.71 c -0.45,0 -1.29,0 -1.29,-0.84 0,-0.87 0.8,-0.87 1.29,-0.87 h 10.71 v -10.7 c 0,-0.46 0,-1.29 0.83,-1.29 0.87,0 0.87,0.8 0.87,1.29 z"
           id="path5521" /></g></g><g
       id="g5631"
       style="fill:#800000"><path
         id="path68"
         d="m 536.86953,742.97831 c -0.43267,-0.10954 -1.28431,-0.3204 -1.7115,-0.42445 -2.93006,-2.04832 -4.84694,-5.15912 -7.44841,-7.55795 -2.74933,1.57183 -5.10162,3.74337 -7.92763,5.18923 -3.6092,1.82925 -7.71677,2.63434 -11.74767,2.24549 -0.0986,-0.79962 -0.18622,-1.59648 -0.27384,-2.3961 0.41076,-0.0712 1.22406,-0.20811 1.62933,-0.27383 0.67365,-0.10953 1.35276,-0.2355 2.02641,-0.35599 -0.27931,-2.88625 -0.47374,-5.79169 -0.23276,-8.69438 0.25193,-3.82827 1.51159,-7.61818 0.93105,-11.47383 -0.5422,-2.86983 -2.6891,-4.99482 -4.68264,-6.95551 -3.32988,-3.23677 -6.70631,-6.72274 -8.11932,-11.26845 -0.31765,-0.88177 -0.15609,-1.82377 -0.0959,-2.7384 2.95198,0.98582 4.84147,3.69957 6.76382,5.98338 1.65398,2.8753 3.47774,5.74787 6.13398,7.81809 0.11501,-1.88401 0.14787,-3.7735 0.19168,-5.66846 1.69233,-0.2793 3.26689,-0.93926 4.61419,-2.01271 2.25642,-1.71423 5.19472,-0.39706 7.32518,0.88997 6.23805,4.10211 10.81663,11.24381 10.78924,18.8401 -0.0439,3.48871 -2.19619,6.34759 -4.68264,8.57115 0.12597,0.15883 0.38064,0.49839 0.5066,0.65722 2.37692,2.88626 5.76431,5.63286 6.01076,9.62543 z m -23.52275,-4.03913 c 4.20068,-1.38562 8.78475,-3.11901 11.36431,-6.94181 -3.06152,-2.86435 -5.78896,-6.11481 -9.22836,-8.55746 -0.77223,5.15365 -0.79961,10.44421 -2.13595,15.49927 z m 14.0753,-9.44743 c 1.28158,-0.0219 1.67864,-1.5554 2.31394,-2.43716 2.5248,-4.78123 0.82427,-10.6003 -2.31394,-14.66406 -2.92459,-3.40108 -7.45935,-5.00851 -11.88458,-4.7511 l 0.41075,0.38337 c 0.0329,3.09438 -0.10954,6.1915 0.21907,9.26944 0.48743,0.90914 1.2131,1.65399 1.90318,2.40979 3.13272,3.24224 5.90122,6.87608 9.35158,9.78972 z"
         style="fill:#800000;display:inline" /><path
         style="fill:#800000;display:inline"
         id="path78"
         d="m 479.56057,736.77586 c 7.06504,0.48743 14.1246,1.99902 21.22797,1.06249 0.12597,-0.41076 0.37242,-1.23775 0.49839,-1.65398 -4.66073,-2.46455 -10.07179,-2.16333 -15.13232,-3.09985 -0.33408,-2.40978 -0.76676,-4.83053 -1.70875,-7.09243 -1.61018,-3.92684 -4.09663,-7.46484 -5.25223,-11.58337 2.32215,-0.52029 4.69907,-1.05154 7.09242,-0.83247 2.25643,0.19169 4.41975,0.90367 6.65427,1.2487 -0.16977,-1.25418 -0.46004,-2.77124 -1.86757,-3.18748 -4.28831,-1.29252 -8.84499,-0.59697 -13.23189,-1.11178 -3.96518,-4.34308 -4.62786,-10.71805 -5.10434,-16.35365 -1.32538,0.19169 -2.57409,0.69007 -3.69135,1.40754 0.16977,4.44714 1.47873,8.74092 3.48323,12.69515 0.66817,1.62661 1.86758,3.33536 1.413,5.1646 -1.31442,2.30572 -3.82278,3.84469 -4.53477,6.52283 -0.71745,1.64303 0.26837,3.27511 0.97486,4.72099 0.24099,-0.0712 0.72295,-0.20812 0.96393,-0.27932 2.27285,-2.04832 2.86982,-5.1865 4.51285,-7.66749 2.89174,5.09341 4.90719,10.61947 7.49771,15.86075 -4.82504,0.13692 -9.65556,-0.35052 -14.46964,0.115 0.32313,1.14465 0.55864,2.65624 1.94973,2.93555 2.84793,0.7558 5.82729,0.70103 8.7245,1.12822 z" /><path
         style="fill:#800000;display:inline"
         id="path82"
         d="m 557.72507,727.15317 c 1.8895,2.8041 2.66171,6.13398 4.14046,9.12978 1.4349,-1.89496 2.2126,-4.32666 1.6923,-6.69261 -1.06248,-6.28187 -6.11206,-10.73448 -8.53281,-16.43033 0.61888,0.0877 1.24323,0.18074 1.86759,0.28479 1.73065,0.32861 3.42298,0.89272 4.98386,1.73615 1.69232,1.51158 2.98483,3.46131 5.0222,4.5731 0.76674,-1.45683 0.83794,-3.09438 0.83246,-4.69907 -0.28478,-0.9201 -0.78864,-1.83472 -1.74708,-2.17428 -4.18972,-1.90592 -8.75188,-2.70552 -13.16616,-3.89946 -1.99902,-3.57634 -3.18748,-7.76059 -6.33664,-10.57018 -1.17202,-1.00772 -2.49192,-2.34952 -4.18424,-1.88948 0.70102,5.08792 3.54894,9.41458 5.62464,13.9822 -0.45456,1.75257 -1.9552,3.06699 -2.67814,4.73193 -1.7197,2.96294 -1.65946,6.65976 -0.18073,9.69936 0.35599,0.0603 1.06796,0.17526 1.42944,0.2355 0.81603,-3.77896 1.36371,-7.70033 3.31892,-11.10689 2.90268,4.19521 5.07696,8.84499 7.91393,13.08949 z" /><path
         style="fill:#800000;display:inline"
         id="path88"
         d="m 450.98278,724.62838 c 0.96938,2.05926 1.82923,5.15365 4.69906,4.86885 0.11502,-0.3998 0.34504,-1.20489 0.46006,-1.61017 -0.60793,-1.16656 -0.95844,-2.55218 -1.96069,-3.46133 -1.04059,-0.51481 -2.1688,-0.0877 -3.19843,0.20265 z" /><path
         style="fill:#800000;display:inline"
         id="path104"
         d="m 450.31461,710.96383 c -0.25742,3.46133 -0.26837,7.4265 2.22356,10.15941 0.4984,-0.43814 1.00225,-0.87628 1.50064,-1.3199 0.87081,-3.2532 -0.62435,-6.45164 -0.36694,-9.69389 0.70103,-2.59051 4.07472,-1.41301 6.00254,-2.30024 0.0439,-0.81604 0.0767,-1.63208 0.0877,-2.44812 -1.86211,-0.1424 -3.88852,-0.58054 -5.62465,0.33956 -2.0045,1.04059 -3.31893,3.09986 -3.82279,5.26318 z" /></g><path
       id="path5638"
       style="fill:none;stroke:#800000;stroke-width:1;stroke-linecap:butt;stroke-linejoin:miter;stroke-miterlimit:10;stroke-opacity:1;stroke-dasharray:none"
       d="m 342.44282,704.64199 c 9.787,-4.355 10.755,-3.387 6.4,6.4 m -12.8,-12.8 c -4.355,9.787 -3.387,10.755 6.4,6.4 m -19.2,-19.2 c -4.355,9.787 -3.387,10.755 6.4,6.4 m -12.8,-12.8 c 9.787,-4.355 10.755,-3.387 6.4,6.4 m -6.4,-6.4 m 12.8,12.8 c 9.787,-4.355 10.755,-3.387 6.4,6.4"
       sodipodi:nodetypes="ccccccccccc" /></g></svg>