<?xml version='1.0' encoding='UTF-8'?>
<!DOCTYPE svg PUBLIC "-//W3C//DTD SVG 1.0//EN" "http://www.w3.org/TR/2001/REC-SVG-20010904/DTD/svg10.dtd">
<svg viewBox="0 0 640 600" xmlns="http://www.w3.org/2000/svg" xmlns:inkspace="http://www.inkscape.org/namespaces/inkscape" xmlns:xlink="http://www.w3.org/1999/xlink">
  <defs id="defs_block">
    <filter height="1.504" id="filter_blur" inkspace:collect="always" width="1.1575" x="-0.07875" y="-0.252">
      <feGaussianBlur id="feGaussianBlur3780" inkspace:collect="always" stdDeviation="4.2" />
    </filter>
  </defs>
  <title>blockdiag</title>
  <desc />
  <rect fill="rgb(0,0,0)" height="40" stroke="rgb(0,0,0)" style="filter:url(#filter_blur);opacity:0.7;fill-opacity:1" width="128" x="67" y="46" />
  <rect fill="rgb(0,0,0)" height="40" stroke="rgb(0,0,0)" style="filter:url(#filter_blur);opacity:0.7;fill-opacity:1" width="128" x="67" y="126" />
  <rect fill="rgb(0,0,0)" height="40" stroke="rgb(0,0,0)" style="filter:url(#filter_blur);opacity:0.7;fill-opacity:1" width="128" x="259" y="126" />
  <rect fill="rgb(0,0,0)" height="40" stroke="rgb(0,0,0)" style="filter:url(#filter_blur);opacity:0.7;fill-opacity:1" width="128" x="451" y="126" />
  <rect fill="rgb(0,0,0)" height="40" stroke="rgb(0,0,0)" style="filter:url(#filter_blur);opacity:0.7;fill-opacity:1" width="128" x="67" y="206" />
  <rect fill="rgb(0,0,0)" height="40" stroke="rgb(0,0,0)" style="filter:url(#filter_blur);opacity:0.7;fill-opacity:1" width="128" x="67" y="286" />
  <rect fill="rgb(0,0,0)" height="40" stroke="rgb(0,0,0)" style="filter:url(#filter_blur);opacity:0.7;fill-opacity:1" width="128" x="67" y="366" />
  <rect fill="rgb(0,0,0)" height="40" stroke="rgb(0,0,0)" style="filter:url(#filter_blur);opacity:0.7;fill-opacity:1" width="128" x="67" y="446" />
  <rect fill="rgb(0,0,0)" height="40" stroke="rgb(0,0,0)" style="filter:url(#filter_blur);opacity:0.7;fill-opacity:1" width="128" x="67" y="526" />
  <rect fill="rgb(0,0,0)" height="40" stroke="rgb(0,0,0)" style="filter:url(#filter_blur);opacity:0.7;fill-opacity:1" width="128" x="451" y="206" />
  <rect fill="rgb(255,255,255)" height="40" stroke="rgb(0,0,0)" width="128" x="64" y="40" />
  <text fill="rgb(0,0,0)" font-family="sans-serif" font-size="5" font-style="normal" font-weight="normal" text-anchor="middle" textLength="17" x="128" y="63">master</text>
  <rect fill="rgb(255,255,255)" height="40" stroke="rgb(0,0,0)" width="128" x="64" y="120" />
  <text fill="rgb(0,0,0)" font-family="sans-serif" font-size="5" font-style="normal" font-weight="normal" text-anchor="middle" textLength="17" x="128" y="143">bogota</text>
  <rect fill="rgb(255,255,255)" height="40" stroke="rgb(0,0,0)" width="128" x="256" y="120" />
  <text fill="rgb(0,0,0)" font-family="sans-serif" font-size="5" font-style="normal" font-weight="normal" text-anchor="middle" textLength="39" x="320" y="143">standard-model</text>
  <rect fill="rgb(255,255,255)" height="40" stroke="rgb(0,0,0)" width="128" x="448" y="120" />
  <text fill="rgb(0,0,0)" font-family="sans-serif" font-size="5" font-style="normal" font-weight="normal" text-anchor="middle" textLength="14" x="512" y="143">sarah</text>
  <rect fill="rgb(255,255,255)" height="40" stroke="rgb(0,0,0)" width="128" x="64" y="200" />
  <text fill="rgb(0,0,0)" font-family="sans-serif" font-size="5" font-style="normal" font-weight="normal" text-anchor="middle" textLength="36" x="128" y="223">bogota_comhep</text>
  <rect fill="rgb(255,255,255)" height="40" stroke="rgb(0,0,0)" width="128" x="64" y="280" />
  <text fill="rgb(0,0,0)" font-family="sans-serif" font-size="5" font-style="normal" font-weight="normal" text-anchor="middle" textLength="14" x="128" y="303">texas</text>
  <rect fill="rgb(255,255,255)" height="40" stroke="rgb(0,0,0)" width="128" x="64" y="360" />
  <text fill="rgb(0,0,0)" font-family="sans-serif" font-size="5" font-style="normal" font-weight="normal" text-anchor="middle" textLength="31" x="128" y="383">bogota_moca</text>
  <rect fill="rgb(255,255,255)" height="40" stroke="rgb(0,0,0)" width="128" x="64" y="440" />
  <text fill="rgb(0,0,0)" font-family="sans-serif" font-size="5" font-style="normal" font-weight="normal" text-anchor="middle" textLength="20" x="128" y="463">titular</text>
  <rect fill="rgb(255,255,255)" height="40" stroke="rgb(0,0,0)" width="128" x="64" y="520" />
  <text fill="rgb(0,0,0)" font-family="sans-serif" font-size="5" font-style="normal" font-weight="normal" text-anchor="middle" textLength="20" x="128" y="543">comhep2</text>
  <rect fill="rgb(255,255,255)" height="40" stroke="rgb(0,0,0)" width="128" x="448" y="200" />
  <text fill="rgb(0,0,0)" font-family="sans-serif" font-size="5" font-style="normal" font-weight="normal" text-anchor="middle" textLength="17" x="512" y="223">comhep</text>
  <path d="M 128 80 L 128 100" fill="none" stroke="rgb(0,0,0)" />
  <path d="M 128 100 L 320 100" fill="none" stroke="rgb(0,0,0)" />
  <path d="M 320 100 L 320 112" fill="none" stroke="rgb(0,0,0)" />
  <polygon fill="rgb(0,0,0)" points="320,119 316,112 324,112 320,119" stroke="rgb(0,0,0)" />
  <path d="M 128 80 L 128 112" fill="none" stroke="rgb(0,0,0)" />
  <polygon fill="rgb(0,0,0)" points="128,119 124,112 132,112 128,119" stroke="rgb(0,0,0)" />
  <path d="M 128 80 L 128 100" fill="none" stroke="rgb(0,0,0)" />
  <path d="M 128 100 L 512 100" fill="none" stroke="rgb(0,0,0)" />
  <path d="M 512 100 L 512 112" fill="none" stroke="rgb(0,0,0)" />
  <polygon fill="rgb(0,0,0)" points="512,119 508,112 516,112 512,119" stroke="rgb(0,0,0)" />
  <path d="M 128 160 L 128 192" fill="none" stroke="rgb(0,0,0)" />
  <polygon fill="rgb(0,0,0)" points="128,199 124,192 132,192 128,199" stroke="rgb(0,0,0)" />
  <path d="M 512 160 L 512 192" fill="none" stroke="rgb(0,0,0)" />
  <polygon fill="rgb(0,0,0)" points="512,199 508,192 516,192 512,199" stroke="rgb(0,0,0)" />
  <path d="M 128 240 L 128 272" fill="none" stroke="rgb(0,0,0)" />
  <polygon fill="rgb(0,0,0)" points="128,279 124,272 132,272 128,279" stroke="rgb(0,0,0)" />
  <path d="M 128 320 L 128 352" fill="none" stroke="rgb(0,0,0)" />
  <polygon fill="rgb(0,0,0)" points="128,359 124,352 132,352 128,359" stroke="rgb(0,0,0)" />
  <path d="M 128 400 L 128 432" fill="none" stroke="rgb(0,0,0)" />
  <polygon fill="rgb(0,0,0)" points="128,439 124,432 132,432 128,439" stroke="rgb(0,0,0)" />
  <path d="M 128 480 L 128 512" fill="none" stroke="rgb(0,0,0)" />
  <polygon fill="rgb(0,0,0)" points="128,519 124,512 132,512 128,519" stroke="rgb(0,0,0)" />
</svg>
