<?xml version="1.0" encoding="UTF-8" standalone="no"?>
<svg
   xmlns:dc="http://purl.org/dc/elements/1.1/"
   xmlns:cc="http://creativecommons.org/ns#"
   xmlns:rdf="http://www.w3.org/1999/02/22-rdf-syntax-ns#"
   xmlns:svg="http://www.w3.org/2000/svg"
   xmlns="http://www.w3.org/2000/svg"
   xmlns:sodipodi="http://sodipodi.sourceforge.net/DTD/sodipodi-0.dtd"
   xmlns:inkscape="http://www.inkscape.org/namespaces/inkscape"
   width="201pt"
   version="1.1"
   height="121pt"
   viewBox="0 0 201 121"
   id="svg3584"
   inkscape:version="0.48.5 r10040"
   sodipodi:docname="T1-2.pdf">
  <metadata
     id="metadata3663">
    <rdf:RDF>
      <cc:Work
         rdf:about="">
        <dc:format>image/svg+xml</dc:format>
        <dc:type
           rdf:resource="http://purl.org/dc/dcmitype/StillImage" />
        <dc:title></dc:title>
      </cc:Work>
    </rdf:RDF>
  </metadata>
  <sodipodi:namedview
     pagecolor="#ffffff"
     bordercolor="#666666"
     borderopacity="1"
     objecttolerance="10"
     gridtolerance="10"
     guidetolerance="10"
     inkscape:pageopacity="0"
     inkscape:pageshadow="2"
     inkscape:window-width="1366"
     inkscape:window-height="702"
     id="namedview3661"
     showgrid="false"
     inkscape:zoom="3.3322314"
     inkscape:cx="125.625"
     inkscape:cy="75.625"
     inkscape:window-x="0"
     inkscape:window-y="27"
     inkscape:window-maximized="1"
     inkscape:current-layer="svg3584" />
  <defs
     id="defs3586">
    <marker
       inkscape:stockid="DotL"
       orient="auto"
       refY="0.0"
       refX="0.0"
       id="DotL"
       style="overflow:visible">
      <path
         id="path3995"
         d="M -2.5,-1.0 C -2.5,1.7600000 -4.7400000,4.0 -7.5,4.0 C -10.260000,4.0 -12.5,1.7600000 -12.5,-1.0 C -12.5,-3.7600000 -10.260000,-6.0 -7.5,-6.0 C -4.7400000,-6.0 -2.5,-3.7600000 -2.5,-1.0 z "
         style="fill-rule:evenodd;stroke:#000000;stroke-width:1.0pt"
         transform="scale(0.8) translate(7.4, 1)" />
    </marker>
    <clipPath
       id="Clip0">
      <path
         d="M0 0 L201 0 L201 121 L0 121 L0 0 Z"
         transform="translate(0, 0)"
         id="path3589" />
    </clipPath>
    <clipPath
       id="Clip1">
      <path
         d="M0 0 L201 0 L201 121 L0 121 L0 0 Z"
         transform="translate(0, 0)"
         id="path3592" />
    </clipPath>
  </defs>
  <g
     id="Background">
    <g
       id="Group1"
       clip-path="url(#Clip0)">
      <g
         id="Group2"
         clip-path="url(#Clip1)">
        <path
           style="fill:none;stroke:#000000;stroke-width:0.80000000000000004;stroke-linecap:butt;stroke-linejoin:miter;stroke-dasharray:none;marker-end:url(#DotL)"
           d="M0 0 L60 0 "
           transform="translate(0.681641, 100.375)"
           id="path3597" />
        <path
           style="fill:#000000; fill-rule:nonzero;stroke:none;"
           d="M5.3994 2.1602 L0 0 L0 4.3202 L5.3994 2.1602 "
           transform="translate(27.9824, 98.2148)"
           id="path3599" />
        <path
           style="fill:none;stroke:#ff0000;stroke-width:0.80000000000000004;stroke-linecap:butt;stroke-linejoin:miter;stroke-dasharray:3 3;stroke-dashoffset:0"
           d="M0 0 L40.0004 0 "
           transform="translate(60.6816, 100.375)"
           id="path3601" />
        <path
           style="fill:none;stroke:#ff0000;stroke-width:0.80000000000000004;stroke-linecap:butt;stroke-linejoin:miter;stroke-dasharray:3 3;stroke-dashoffset:0"
           d="M0 0 L40 0 "
           transform="translate(100.682, 100.375)"
           id="path3603" />
        <path
           style="fill:#000000; fill-rule:nonzero;stroke:none;"
           d="M5.3996 2.1602 L0 0 L0 4.3202 L5.3996 2.1602 "
           transform="translate(97.9824, 98.2148)"
           id="path3605" />
        <path
           style="fill:none;stroke:#000000; stroke-width:0.8; stroke-linecap:butt; stroke-linejoin:miter; stroke-dasharray:4 4 ; stroke-dashoffset:0;"
           d="M30 0 L0 0 "
           transform="translate(170.682, 100.375)"
           id="path3607" />
        <path
           style="fill:none;stroke:#000000; stroke-width:0.8; stroke-linecap:butt; stroke-linejoin:miter; stroke-dasharray:4 4 ; stroke-dashoffset:0;"
           d="M30 0 L0 0 "
           transform="translate(140.682, 100.375)"
           id="path3609" />
        <path
           style="fill:#000000; fill-rule:nonzero;stroke:none;"
           d="M0 2.1602 L5.4 4.3202 L5.4 0 L0 2.1602 "
           transform="translate(167.982, 98.2148)"
           id="path3611" />
        <path
           style="fill:none;stroke:#ff0000;stroke-width:0.80000000000000004;stroke-linecap:butt;stroke-linejoin:miter;stroke-dasharray:none"
           d="M0 0 L0 80 "
           transform="translate(60.6816, 20.375)"
           id="path3613" />
        <path
           style="fill:#000000; fill-rule:nonzero;stroke:none;"
           d="M2.1591 5.4004 L4.3193 0 L0 0 L2.1591 5.4004 "
           transform="translate(58.5225, 57.6748)"
           id="path3615" />
        <path
           style="fill:none;stroke:#000000;stroke-width:0.80000000000000004;stroke-linecap:butt;stroke-linejoin:miter;stroke-dasharray:3 3;stroke-dashoffset:0"
           d="M0 40 L0 0 "
           transform="translate(140.682, 60.375)"
           id="path3617" />
        <path
           style="fill:none;stroke:#000000;stroke-width:0.80000000000000004;stroke-linecap:butt;stroke-linejoin:miter;stroke-dasharray:3 3;stroke-dashoffset:0"
           d="M0 40 L0 0 "
           transform="translate(140.682, 20.375)"
           id="path3619" />
        <path
           style="fill:#000000; fill-rule:nonzero;stroke:none;"
           d="M2.16 0 L0 5.4004 L4.32 5.4004 L2.16 0 "
           transform="translate(138.522, 57.6748)"
           id="path3621" />
        <path
           style="fill:none;stroke:#000000; stroke-width:0.8; stroke-linecap:butt; stroke-linejoin:miter; stroke-dasharray:4 4 ; stroke-dashoffset:0;"
           d="M0 0 L30 0 "
           transform="translate(0.681641, 20.375)"
           id="path3623" />
        <path
           style="fill:none;stroke:#000000; stroke-width:0.8; stroke-linecap:butt; stroke-linejoin:miter; stroke-dasharray:4 4 ; stroke-dashoffset:0;"
           d="M0 0 L30 0 "
           transform="translate(30.6816, 20.375)"
           id="path3625" />
        <path
           style="fill:#000000; fill-rule:nonzero;stroke:none;"
           d="M5.3994 2.1602 L0 0 L0 4.3204 L5.3994 2.1602 "
           transform="translate(27.9824, 18.2148)"
           id="path3627" />
        <path
           style="fill:none;stroke:#000000;stroke-width:0.80000000000000004;stroke-linecap:butt;stroke-linejoin:miter;stroke-dasharray:none"
           d="M60 0 L0 0 "
           transform="translate(140.682, 20.375)"
           id="path3629" />
        <path
           style="fill:#000000; fill-rule:nonzero;stroke:none;"
           d="M0 2.1602 L5.4 4.3204 L5.4 0 L0 2.1602 "
           transform="translate(167.982, 18.2148)"
           id="path3631" />
        <path
           style="fill:none;stroke:#000000;stroke-width:0.80000000000000004;stroke-linecap:butt;stroke-linejoin:miter;stroke-dasharray:none"
           d="M80.0004 0 L0 0 "
           transform="translate(60.6816, 20.375)"
           id="path3633" />
        <path
           style="fill:#000000; fill-rule:nonzero;stroke:none;"
           d="M0 2.1602 L5.3996 4.3204 L5.3996 0 L0 2.1602 "
           transform="translate(97.9824, 18.2148)"
           id="path3635" />
        <path
           style="fill:#ff0000;fill-rule:evenodd;stroke:none"
           d="m 151.593,53.889 c 0,-0.11 -0.082,-0.11 -0.118,-0.11 -0.109,0 -0.121,0.024 -0.168,0.227 l -0.6441,2.562 c -0.0352,0.157 -0.0469,0.168 -0.0586,0.18 -0.0117,0.023 -0.0938,0.035 -0.1211,0.035 -1.9531,0.168 -3.457,1.778 -3.457,3.266 0,1.289 0.9922,2.074 2.2304,2.148 -0.0937,0.367 -0.1796,0.75 -0.2734,1.117 -0.168,0.633 -0.2617,1.028 -0.2617,1.075 0,0.023 0,0.097 0.1172,0.097 0.0351,0 0.0859,0 0.1093,-0.05 0.0235,-0.024 0.0938,-0.309 0.1407,-0.465 l 0.4414,-1.774 c 2.0389,-0.109 3.5899,-1.777 3.5899,-3.281 0,-1.203 -0.906,-2.062 -2.2305,-2.145 l 0.7035,-2.882 z m -0.7739,3.121 c 0.7849,0.047 1.5739,0.488 1.5739,1.656 0,1.348 -0.941,3.137 -2.8004,3.281 l 1.2265,-4.937 z m -1.5039,4.949 c -0.582,-0.039 -1.5586,-0.348 -1.5586,-1.66 0,-1.5 1.0821,-3.168 2.8008,-3.278 l -1.2422,4.938 z"
           id="path3649"
           inkscape:connector-curvature="0" />
        <path
           style="fill:#ff0000;fill-rule:evenodd;stroke:none"
           d="m 155.507,53.949 c 0.039,-0.105 0.07,-0.16 0.07,-0.238 0,-0.262 -0.238,-0.438 -0.461,-0.438 -0.316,0 -0.406,0.278 -0.437,0.387 l -1.012,3.426 c -0.031,0.098 -0.031,0.121 -0.031,0.129 0,0.07 0.046,0.086 0.128,0.109 0.141,0.067 0.157,0.067 0.176,0.067 0.024,0 0.071,0 0.125,-0.137 l 1.442,-3.305 z"
           id="path3651"
           inkscape:connector-curvature="0" />
        <path
           style="fill:#ff0000;fill-rule:evenodd;stroke:none"
           d="m 102.002,106.1113 c 0,-0.1093 -0.082,-0.1093 -0.118,-0.1093 -0.109,0 -0.121,0.0234 -0.168,0.2265 l -0.644,2.5625 c -0.035,0.1563 -0.047,0.168 -0.059,0.1797 -0.011,0.0234 -0.093,0.0352 -0.121,0.0352 -1.953,0.1679 -3.457,1.7773 -3.457,3.2656 0,1.289 0.992,2.0742 2.231,2.1484 -0.094,0.3672 -0.18,0.75 -0.274,1.1172 -0.168,0.6328 -0.262,1.0274 -0.262,1.0742 0,0.0235 0,0.0977 0.118,0.0977 0.035,0 0.086,0 0.109,-0.0508 0.023,-0.0234 0.094,-0.3086 0.141,-0.4648 l 0.441,-1.7735 c 2.039,-0.1094 3.59,-1.7773 3.59,-3.2812 0,-1.2032 -0.906,-2.0625 -2.231,-2.1446 l 0.704,-2.8828 z m -0.774,3.1211 c 0.785,0.0469 1.574,0.4883 1.574,1.6563 0,1.3476 -0.941,3.1367 -2.8,3.2812 l 1.226,-4.9375 z m -1.504,4.9492 c -0.582,-0.039 -1.558,-0.3476 -1.558,-1.6601 0,-1.5 1.082,-3.168 2.8,-3.2774 l -1.242,4.9375 z"
           id="path3659"
           inkscape:connector-curvature="0" />
      </g>
    </g>
  </g>
  <text
     xml:space="preserve"
     style="font-size:12.80000019px;font-style:italic;font-variant:normal;font-weight:normal;font-stretch:normal;text-align:start;line-height:125%;letter-spacing:0px;word-spacing:0px;writing-mode:lr-tb;text-anchor:start;fill:#ff0000;fill-opacity:1;stroke:none;font-family:Fira Sans;-inkscape-font-specification:Fira Sans Italic"
     x="97.611488"
     y="14.004788"
     id="text4335"
     sodipodi:linespacing="125%"><tspan
       sodipodi:role="line"
       id="tspan4337"
       x="97.611488"
       y="14.004788">Ψ</tspan></text>
  <text
     sodipodi:linespacing="125%"
     id="text5222"
     y="116.38889"
     x="25.80039"
     style="font-size:12.80000019px;font-style:italic;font-variant:normal;font-weight:normal;font-stretch:normal;text-align:start;line-height:125%;letter-spacing:0px;word-spacing:0px;writing-mode:lr-tb;text-anchor:start;fill:#ff0000;fill-opacity:1;stroke:none;font-family:Fira Sans;-inkscape-font-specification:Fira Sans Italic"
     xml:space="preserve"><tspan
       y="116.38889"
       x="25.80039"
       id="tspan5224"
       sodipodi:role="line"
       style="fill:#000000">L</tspan></text>
  <text
     xml:space="preserve"
     style="font-size:12.80000019px;font-style:italic;font-variant:normal;font-weight:normal;font-stretch:normal;text-align:start;line-height:125%;letter-spacing:0px;word-spacing:0px;writing-mode:lr-tb;text-anchor:start;fill:#ff0000;fill-opacity:1;stroke:none;font-family:Fira Sans;-inkscape-font-specification:Fira Sans Italic"
     x="165.0004"
     y="116.38889"
     id="text5228"
     sodipodi:linespacing="125%"><tspan
       style="fill:#000000"
       sodipodi:role="line"
       id="tspan5230"
       x="165.0004"
       y="116.38889">H</tspan></text>
  <text
     xml:space="preserve"
     style="font-size:12.80000019px;font-style:italic;font-variant:normal;font-weight:normal;font-stretch:normal;text-align:start;line-height:125%;letter-spacing:0px;word-spacing:0px;writing-mode:lr-tb;text-anchor:start;fill:#ff0000;fill-opacity:1;stroke:none;font-family:Fira Sans;-inkscape-font-specification:Fira Sans Italic"
     x="25.80039"
     y="13.988896"
     id="text6457"
     sodipodi:linespacing="125%"><tspan
       style="fill:#000000"
       sodipodi:role="line"
       id="tspan6459"
       x="25.80039"
       y="13.988896">H</tspan></text>
  <text
     sodipodi:linespacing="125%"
     id="text6461"
     y="13.988896"
     x="163.7972"
     style="font-size:12.80000019px;font-style:italic;font-variant:normal;font-weight:normal;font-stretch:normal;text-align:start;line-height:125%;letter-spacing:0px;word-spacing:0px;writing-mode:lr-tb;text-anchor:start;fill:#ff0000;fill-opacity:1;stroke:none;font-family:Fira Sans;-inkscape-font-specification:Fira Sans Italic"
     xml:space="preserve"><tspan
       y="13.988896"
       x="163.7972"
       id="tspan6463"
       sodipodi:role="line"
       style="fill:#000000">L</tspan></text>
  <text
     sodipodi:linespacing="125%"
     id="text6884"
     y="62.647617"
     x="43.612732"
     style="font-size:12.80000019px;font-style:italic;font-variant:normal;font-weight:normal;font-stretch:normal;text-align:start;line-height:125%;letter-spacing:0px;word-spacing:0px;writing-mode:lr-tb;text-anchor:start;fill:#ff0000;fill-opacity:1;stroke:none;font-family:Fira Sans;-inkscape-font-specification:Fira Sans Italic"
     xml:space="preserve"><tspan
       y="62.647617"
       x="43.612732"
       id="tspan6886"
       sodipodi:role="line">Ψ'</tspan></text>
</svg>
