<?xml version="1.0" encoding="UTF-8" standalone="no"?>
<!-- Created with Inkscape (http://www.inkscape.org/) -->

<svg
   xmlns:dc="http://purl.org/dc/elements/1.1/"
   xmlns:cc="http://creativecommons.org/ns#"
   xmlns:rdf="http://www.w3.org/1999/02/22-rdf-syntax-ns#"
   xmlns:svg="http://www.w3.org/2000/svg"
   xmlns="http://www.w3.org/2000/svg"
   xmlns:sodipodi="http://sodipodi.sourceforge.net/DTD/sodipodi-0.dtd"
   xmlns:inkscape="http://www.inkscape.org/namespaces/inkscape"
   width="1366"
   height="816"
   viewBox="0 0 361.42083 215.9"
   version="1.1"
   id="svg8"
   inkscape:version="0.92.1 r15371"
   sodipodi:docname="zoom.svg">
  <defs
     id="defs2" />
  <sodipodi:namedview
     id="base"
     pagecolor="#ffffff"
     bordercolor="#666666"
     borderopacity="1.0"
     inkscape:pageopacity="0.0"
     inkscape:pageshadow="2"
     inkscape:zoom="0.69117647"
     inkscape:cx="530.89362"
     inkscape:cy="402.21277"
     inkscape:document-units="mm"
     inkscape:current-layer="layer1"
     showgrid="false"
     units="px"
     inkscape:window-width="1366"
     inkscape:window-height="744"
     inkscape:window-x="0"
     inkscape:window-y="0"
     inkscape:window-maximized="1" />
  <metadata
     id="metadata5">
    <rdf:RDF>
      <cc:Work
         rdf:about="">
        <dc:format>image/svg+xml</dc:format>
        <dc:type
           rdf:resource="http://purl.org/dc/dcmitype/StillImage" />
        <dc:title></dc:title>
      </cc:Work>
    </rdf:RDF>
  </metadata>
  <g
     inkscape:label="Layer 1"
     inkscape:groupmode="layer"
     id="layer1"
     transform="translate(0,-81.1)">
    <path
       style="opacity:1;fill:#ff0000;fill-opacity:1;stroke:#ff0000;stroke-width:0.52916664;stroke-miterlimit:4;stroke-dasharray:none;stroke-dashoffset:0;stroke-opacity:1"
       id="path21"
       d="m 278.74063,222.87483 c -1.20394,-0.0189 -2.40819,-0.0187 -3.61228,-0.0233 -1.82374,-0.0323 -3.63961,0.21516 -5.43396,0.51817 -1.85036,0.31618 -3.70409,0.64262 -5.52098,1.1185 -1.24704,0.23912 -2.44922,0.61249 -3.64113,1.03959 -0.66435,0.41954 -1.37883,0.72615 -2.07839,1.07408 0.43157,-0.40895 -1.60522,0.85031 -1.06745,0.54663 7.2493,-4.09367 5.25814,-3.22534 3.57316,-1.82008 -0.96177,0.76987 -1.61716,1.76204 -2.14438,2.85823 -0.38833,0.88132 -0.50758,1.8297 -0.57241,2.78016 -0.0429,1.08312 -0.0368,2.16745 -0.0311,3.25118 0.008,1.11837 0.004,2.23653 0.0126,3.35495 0.01,0.93135 0.008,1.86271 0.002,2.79407 -0.0239,1.23102 -0.0125,2.46227 -0.003,3.69336 -0.0556,0.86403 0.095,1.7081 0.22379,2.55721 0.13057,0.75914 0.11065,1.53213 0.19468,2.2951 0.15587,0.78809 0.2109,1.5918 0.42832,2.366 0.22262,0.88802 0.76983,1.61798 1.30715,2.34022 0.89115,1.12984 1.93886,2.11484 3.06838,3.00066 1.38452,1.0537 2.80277,2.07689 4.32013,2.93155 1.23248,0.60846 2.62032,0.57129 3.9616,0.60875 2.24909,0.0536 4.49369,0.22175 6.74264,0.30014 2.19819,0.12763 4.3883,0.035 6.58112,-0.11664 1.61914,-0.0505 3.22352,-0.21647 4.83216,-0.39202 1.29178,-0.15284 2.52881,-0.50807 3.75537,-0.92307 0.13869,-0.0725 0.27741,-0.14494 0.41611,-0.2174 -1.52893,0.86151 -3.03618,1.76266 -4.58679,2.58454 -0.0951,0.0504 0.14007,-0.1648 0.1956,-0.25705 0.20109,-0.33405 0.31636,-0.73265 0.44932,-1.09613 0.3303,-0.95206 0.6478,-1.90874 0.9738,-2.86262 0.3702,-1.16041 0.79115,-2.30468 1.1408,-3.47148 0.29705,-1.3259 0.59679,-2.65238 0.8414,-3.98911 0.24802,-1.45584 0.29549,-2.93336 0.32769,-4.40648 0.0103,-1.32517 0.0143,-2.65037 0.0167,-3.97558 -0.004,-1.12837 -0.0185,-2.25666 -0.0267,-3.385 -0.005,-0.79632 -0.006,-1.59266 -0.007,-2.38899 -0.0156,-0.75173 0.0339,-1.506 -0.03,-2.25569 -0.0496,-0.61762 -0.30649,-1.13057 -0.71546,-1.58094 -0.35946,-0.40943 -0.78803,-0.68318 -1.2886,-0.8871 -0.83481,-0.22579 -1.57255,-0.70393 -2.30372,-1.15129 -0.65382,-0.40962 -1.36115,-0.73798 -1.96856,-1.21635 -0.61193,-0.48454 -1.29804,-0.80082 -2.03869,-1.03269 -1.27318,-0.37844 -2.51849,-0.84278 -3.80339,-1.18027 -1.19869,-0.27971 -2.43139,-0.31474 -3.65617,-0.3394 -1.36025,-0.0159 -2.72066,-0.0148 -4.08096,-0.008 -0.2136,0.002 -0.42717,0.003 -0.64077,0.004 0,0 4.54605,-3.30449 4.54605,-3.30449 v 0 c 0.2109,5.2e-4 0.4218,0.001 0.6327,0.002 1.36654,5.3e-4 2.73333,-0.0148 4.09966,0.0156 1.25593,0.0451 2.51778,0.10743 3.73489,0.45134 1.28656,0.37828 2.54947,0.83255 3.84244,1.1907 0.78165,0.282 1.50958,0.64254 2.16114,1.16643 0.61306,0.43157 1.28249,0.78251 1.91817,1.17914 0.73465,0.42845 1.474,0.83623 2.2904,1.09007 0.54131,0.27862 1.03767,0.59908 1.42491,1.07919 0.46426,0.54184 0.77658,1.17309 0.86551,1.88877 0.11464,0.76597 0.0426,1.54282 0.0615,2.3156 0,0.79832 0,1.59663 -0.006,2.39494 -0.007,1.13587 -0.0183,2.27172 -0.0185,3.40761 0.006,1.32856 0.022,2.65728 -0.008,3.98568 -0.0315,1.49824 -0.0796,3.00067 -0.29673,4.48558 -0.22342,1.35021 -0.54166,2.68096 -0.78902,4.02675 -0.31146,1.18901 -0.7898,2.32547 -1.12969,3.50643 -0.34097,0.9437 -0.6259,1.90595 -0.93432,2.86038 -0.0752,0.18967 -0.46379,1.48045 -0.55155,1.53968 -4.19965,2.8341 -3.28959,2.46366 -5.5127,3.28873 -1.23857,0.39196 -2.50788,0.66277 -3.79982,0.80953 -1.60014,0.17156 -3.20254,0.27378 -4.81031,0.34525 -2.19043,0.12787 -4.3793,0.15541 -6.57206,0.0422 -2.26174,-0.0813 -4.52056,-0.24059 -6.78384,-0.26531 -1.43896,-0.0401 -2.89335,-0.0447 -4.16503,-0.81377 -1.48888,-0.93235 -2.91397,-1.96556 -4.3201,-3.01752 -1.16849,-0.91945 -2.27632,-1.92316 -3.20995,-3.0858 -0.5823,-0.77027 -1.16453,-1.55788 -1.41218,-2.50777 -0.25642,-0.79612 -0.32877,-1.61614 -0.48341,-2.43581 -0.12587,-0.75793 -0.0708,-1.53243 -0.19119,-2.29326 -0.12308,-0.87858 -0.31461,-1.74918 -0.23735,-2.64245 0.009,-1.23005 0.021,-2.46025 -0.003,-3.69022 -0.006,-0.93173 -0.007,-1.86345 0.001,-2.79517 0.006,-1.1196 -7.9e-4,-2.23883 -0.002,-3.35839 -0.002,-1.08966 -0.0216,-2.17954 -0.002,-3.26907 0.0344,-1.01073 0.14931,-2.01935 0.50366,-2.97442 0.46832,-1.16763 1.10717,-2.23523 2.04361,-3.09138 2.11377,-1.8409 4.59709,-3.22162 7.14699,-4.37247 0.70784,-0.32285 1.36347,-0.75176 2.09918,-1.01328 1.18412,-0.4066 2.40239,-0.67963 3.6222,-0.95652 1.82856,-0.41971 3.67326,-0.7687 5.52564,-1.06551 1.82861,-0.28174 3.67157,-0.50449 5.52563,-0.47493 1.22542,-0.005 2.45102,-0.005 3.67631,-0.0232 0,0 -4.59576,3.33901 -4.59576,3.33901 z"
       inkscape:connector-curvature="0" />
    <path
       style="opacity:1;fill:#ff0000;fill-opacity:1;stroke:#ff0000;stroke-width:0.52916664;stroke-miterlimit:4;stroke-dasharray:none;stroke-dashoffset:0;stroke-opacity:1"
       id="path27"
       d="m 254.04354,263.3081 c -4.77519,-1.03746 -9.57631,-1.95118 -14.37541,-2.87029 -6.26023,-1.16941 -12.55084,-2.21103 -18.8762,-2.96397 -3.20865,-0.38193 -8.19903,-0.84453 -11.38455,-1.15183 -10.43233,-0.94454 -20.90517,-1.28847 -31.37532,-1.42025 -3.42163,0.14786 -6.90185,-0.26885 -10.30772,0.17694 0,0 4.4571,-3.29984 4.4571,-3.29984 v 0 c 3.2953,-0.15787 6.6009,0.20586 9.89708,0.19685 10.37262,0.33841 20.74424,0.79267 31.08744,1.66878 3.67401,0.33373 7.80662,0.68772 11.4804,1.10379 6.40009,0.72482 12.76916,1.70919 19.1108,2.83014 4.9648,0.86444 9.92966,1.73341 14.91143,2.49485 0,0 -4.62505,3.23483 -4.62505,3.23483 z"
       inkscape:connector-curvature="0" />
    <path
       style="opacity:1;fill:#ff0000;fill-opacity:1;stroke:#ff0000;stroke-width:0.52916664;stroke-miterlimit:4;stroke-dasharray:none;stroke-dashoffset:0;stroke-opacity:1"
       id="path31"
       d="m 257.30375,219.42961 c -2.43086,0.006 -4.83569,-0.24611 -7.22816,-0.65642 -4.5223,-0.75744 -8.59959,-2.67624 -12.60656,-4.8143 -2.77327,-1.59658 -5.599,-3.13351 -8.22275,-4.97419 -2.01338,-1.41248 -2.40336,-1.82505 -4.31676,-3.45407 -4.695,-4.23998 -9.09896,-8.78841 -13.52525,-13.30445 -4.38615,-4.39633 -7.95481,-9.48191 -11.44236,-14.59325 -2.86812,-4.35951 -5.67836,-8.75979 -8.43075,-13.19364 -1.80863,-2.90211 -3.41805,-5.91828 -4.89614,-8.99971 -0.50773,-1.09612 -1.13653,-2.14994 -1.5219,-3.30051 -0.60665,-1.81121 0.0947,-0.0509 -0.68836,-1.90559 -1.08764,-2.03004 -2.46013,-3.89538 -3.68506,-5.84619 -1.66296,-2.63763 -3.21726,-5.34211 -4.89996,-7.96716 -0.18627,-0.29616 -0.37254,-0.59231 -0.55881,-0.88847 0,0 4.79423,-2.77993 4.79423,-2.77993 v 0 c 0.17351,0.30091 0.34703,0.60182 0.52054,0.90273 1.60024,2.67184 3.12854,5.38809 4.86604,7.97564 1.28706,1.94526 2.71621,3.81271 3.78714,5.88903 0.77768,1.71664 1.2801,3.54353 2.16237,5.21798 1.40507,3.09612 2.94711,6.12667 4.72153,9.03013 2.68406,4.4634 5.42138,8.89874 8.27689,13.25429 3.44978,5.10286 7.02784,10.14185 11.39646,14.51438 4.39932,4.52174 8.75339,9.10704 13.52476,13.24302 0.74073,0.60672 1.46449,1.23476 2.22218,1.82015 3.22244,2.48968 6.81446,4.44639 10.33725,6.46606 4.06473,2.14467 8.00593,3.93063 12.60348,4.60156 2.45516,0.34704 4.92359,0.55569 7.40571,0.42389 0,0 -4.59576,3.33902 -4.59576,3.33902 z"
       inkscape:connector-curvature="0" />
  </g>
</svg>
